<?xml version="1.0" encoding="UTF-8"?>
<svg width="124px" height="36px" viewBox="0 0 124 36" version="1.1" xmlns="http://www.w3.org/2000/svg" xmlns:xlink="http://www.w3.org/1999/xlink">
    <title>Vercel (dark)</title>
    <g id="Vercel-(dark)" stroke="none" stroke-width="1" fill="none" fill-rule="evenodd">
        <rect fill="" x="0" y="0" width="124" height="36"></rect>
        <g id="Group" transform="translate(8, 6)" fill="#FFFFFF" fill-rule="nonzero">
            <path d="M53.3788908,6 C49.2006225,6 46.1880306,8.7 46.1880306,12.75 C46.1880306,16.8 49.5790889,19.5 53.7573571,19.5 C56.2817275,19.5 58.5071095,18.51 59.8847269,16.84125 L56.9894595,15.18375 C56.2249576,16.0125 55.0630659,16.49625 53.7573571,16.49625 C51.9445034,16.49625 50.4041454,15.55875 49.8326613,14.05875 L60.4372878,14.05875 C60.5205504,13.63875 60.569751,13.20375 60.569751,12.74625 C60.569751,8.7 57.557159,6 53.3788908,6 Z M49.7985993,11.4375 C50.2716822,9.94125 51.5660371,9 53.3751061,9 C55.1879598,9 56.4823147,9.94125 56.9516129,11.4375 L49.7985993,11.4375 L49.7985993,11.4375 Z M94.1321449,6 C89.9538766,6 86.9412847,8.7 86.9412847,12.75 C86.9412847,16.8 90.332343,19.5 94.5106112,19.5 C97.0349816,19.5 99.2603636,18.51 100.637981,16.84125 L97.7427136,15.18375 C96.9782117,16.0125 95.81632,16.49625 94.5106112,16.49625 C92.6977575,16.49625 91.1573995,15.55875 90.5859154,14.05875 L101.190542,14.05875 C101.273804,13.63875 101.323005,13.20375 101.323005,12.74625 C101.323005,8.7 98.3104131,6 94.1321449,6 L94.1321449,6 Z M90.5556381,11.4375 C91.028721,9.94125 92.3230758,9 94.1321449,9 C95.9449986,9 97.2393534,9.94125 97.7086517,11.4375 L90.5556381,11.4375 L90.5556381,11.4375 Z M75.7840973,12.75 C75.7840973,15 77.2676853,16.5 79.5687606,16.5 C81.1280419,16.5 82.2975028,15.79875 82.8992643,14.655 L85.8058857,16.31625 C84.6023628,18.30375 82.3467035,19.5 79.5687606,19.5 C75.3867077,19.5 72.3779004,16.8 72.3779004,12.75 C72.3779004,8.7 75.3904924,6 79.5687606,6 C82.3467035,6 84.5985781,7.19625 85.8058857,9.18375 L82.8992643,10.845 C82.2975028,9.70125 81.1280419,9 79.5687606,9 C77.27147,9 75.7840973,10.5 75.7840973,12.75 Z M107,1.875 L107,19.125 L103.593803,19.125 L103.593803,1.875 L107,1.875 Z M13.9843308,0 L27.9686616,24 L0,24 L13.9843308,0 Z M48.9470501,1.875 L38.4597482,19.875 L27.9724462,1.875 L31.9047114,1.875 L38.4597482,13.125 L45.0147849,1.875 L48.9470501,1.875 L48.9470501,1.875 Z M71.2425014,6.375 L71.2425014,10.00875 C70.8640351,9.9 70.4628608,9.825 70.0314092,9.825 C67.8325198,9.825 66.2467459,11.325 66.2467459,13.575 L66.2467459,19.125 L62.840549,19.125 L62.840549,6.375 L66.2467459,6.375 L66.2467459,9.825 C66.2467459,7.92 68.4834819,6.375 71.2425014,6.375 Z" id="Shape"></path>
        </g>
    </g>
</svg>
