
<svg width="125px" height="30px" viewBox="0 0 125 30" version="1.1" xmlns="http://www.w3.org/2000/svg" xmlns:xlink="http://www.w3.org/1999/xlink">
    <defs>
        <circle id="path-wsldz76550-1" cx="15" cy="15" r="15"></circle>
        <linearGradient x1="55.6325605%" y1="56.3850422%" x2="83.2279093%" y2="96.0801119%" id="linearGradient-wsldz76550-3">
            <stop stop-color="#6D78ED" offset="0%"></stop>
            <stop stop-color="#6D78ED" stop-opacity="0" offset="100%"></stop>
        </linearGradient>
        <linearGradient x1="50%" y1="0%" x2="49.9534722%" y2="73.4375%" id="linearGradient-wsldz76550-4">
            <stop stop-color="#6D78ED" offset="0%"></stop>
            <stop stop-color="#6D78ED" stop-opacity="0" offset="100%"></stop>
        </linearGradient>
    </defs>
    <g id="Technology-Logos" stroke="none" stroke-width="1" fill="none" fill-rule="evenodd">
        <g id="Next.JS-(dark)" transform="translate(-8, -3)">
            <g id="Font" transform="translate(46, 9)" fill="#FFFFFF">
                <polygon id="Path" fill-rule="nonzero" points="58 0 73.037037 0 73.037037 2.74485787 67.0720039 2.74485787 67.0720039 17.1851852 64.0892682 17.1851852 64.0892682 2.74485787 58 2.74485787"></polygon>
                <polygon id="Path" fill-rule="nonzero" points="32.2222222 0 32.2222222 2.74485787 20.1689856 2.74485787 20.1689856 7.16049192 29.862185 7.16049192 29.862185 9.90534377 20.1689856 9.90534377 20.1689856 14.4403333 32.2222222 14.4403333 32.2222222 17.1851852 17.1864341 17.1851852 17.1864341 2.74485787 17.1851852 2.74485787 17.1851852 0"></polygon>
                <polygon id="Path" fill-rule="nonzero" points="40.5011618 0 36.5185185 0 50.7835089 17.1851852 54.7777778 17.1851852 47.6443883 8.59850309 54.7663758 0.013111204 50.7835089 0.0190768111 45.6503838 6.1982401"></polygon>
                <polygon id="Path" fill-rule="nonzero" points="44.037037 13.2073304 42.1813806 10.7407407 36.5185185 18.2592593 40.2346157 18.2592593"></polygon>
                <polygon id="Path" points="17.1851852 17.1851852 3.61412046 0 0 0 0 17.1780156 2.89130062 17.1780156 2.89130062 3.671793 13.5529677 17.1851852"></polygon>
                <path d="M73.1126272,17.1851852 C72.8153405,17.1851852 72.5624827,17.0802811 72.350774,16.8704427 C72.1390653,16.6606042 72.0344037,16.406562 72.0370874,16.1056122 C72.0344037,15.812926 72.1390653,15.5616484 72.350774,15.3518099 C72.5624827,15.1419715 72.8153405,15.037037 73.1126272,15.037037 C73.398583,15.037037 73.6487571,15.1419715 73.8604658,15.3518099 C74.0751563,15.5616484 74.1822034,15.812926 74.1851852,16.1056122 C74.1822034,16.3043922 74.1327053,16.4866147 74.0337091,16.6495153 C73.9320293,16.8152108 73.8029168,16.9449965 73.640408,17.0388724 C73.480881,17.135513 73.3049541,17.1851852 73.1126272,17.1851852 Z" id="Path" fill-rule="nonzero"></path>
                <path d="M78.2603884,9.66666667 L79.4814815,9.66666667 L79.4814815,14.880894 C79.4796596,15.3601058 79.3861342,15.7699869 79.2033346,16.1146209 C79.0185107,16.4592325 78.7626317,16.7222627 78.4340783,16.9078401 C78.1073469,17.0913532 77.7245406,17.1851852 77.289506,17.1851852 C76.8917195,17.1851852 76.5352299,17.1056456 76.2178105,16.9506725 C75.9003911,16.7956994 75.6483584,16.5632285 75.4635345,16.2573434 C75.2766862,15.9514583 75.1851852,15.5701396 75.1851852,15.1133649 L76.4083027,15.1133649 C76.4101246,15.3132122 76.4512191,15.4865165 76.5295617,15.6313031 C76.6079044,15.7760898 76.7162076,15.8861887 76.8544713,15.9636865 C76.9943545,16.0411843 77.1550886,16.0799331 77.3360662,16.0799331 C77.5322266,16.0799331 77.7002483,16.0350589 77.8364877,15.9432911 C77.972727,15.8535651 78.0773863,15.7189874 78.1502633,15.5395353 C78.2211158,15.3621476 78.2585664,15.1419049 78.2603884,14.880894 L78.2603884,9.66666667 Z" id="Path" fill-rule="nonzero"></path>
                <path d="M85.6837982,11.7749035 C85.6531306,11.4633936 85.5183603,11.2202137 85.2836595,11.0473763 C85.0468725,10.8725265 84.7410314,10.7861077 84.3657188,10.7861077 C84.1022281,10.7861077 83.8752464,10.828322 83.6866513,10.9107161 C83.4980562,10.9951225 83.3518116,11.1076571 83.2516726,11.2503541 C83.1517422,11.3930512 83.1016727,11.5558492 83.0977089,11.7387483 C83.0977089,11.8914847 83.1323403,12.0241203 83.1997255,12.1346646 C83.2671107,12.2471991 83.3574444,12.3416671 83.4748991,12.4180464 C83.5902675,12.4964159 83.7191965,12.5607214 83.8598083,12.6129751 C84.0020891,12.6652288 84.1445785,12.7094553 84.2868593,12.7456327 L84.9429783,12.9164578 C85.2066777,12.9807633 85.4626579,13.0672041 85.7069553,13.1777264 C85.9512527,13.2862584 86.1726016,13.4249308 86.3668295,13.5917314 C86.5612661,13.758554 86.7152298,13.9595196 86.8287206,14.1946723 C86.9422115,14.4298029 87,14.7051355 87,15.0226824 C87,15.4507514 86.8961058,15.8265889 86.6862312,16.1521629 C86.4765652,16.4757245 86.1744792,16.7289659 85.7780957,16.9118649 C85.3835899,17.0927516 84.9064693,17.1851852 84.3446479,17.1851852 C83.8020198,17.1851852 83.3286544,17.0967763 82.9303933,16.9199142 C82.5302546,16.7450644 82.2183634,16.4877984 81.9932593,16.1501505 C81.7681552,15.8125248 81.6469453,15.40051 81.6296296,14.9161626 L82.8765686,14.9161626 C82.8938843,15.1693819 82.9708662,15.3804312 83.1016727,15.5512563 C83.2343569,15.7200692 83.4075139,15.8446776 83.6192661,15.929084 C83.8328959,16.0114781 84.0713519,16.0536924 84.3350512,16.0536924 C84.6102248,16.0536924 84.8526446,16.0094658 85.0623106,15.9230471 C85.270099,15.8366283 85.4336594,15.7160667 85.551114,15.5593056 C85.6704463,15.4045346 85.7301125,15.2216577 85.7319901,15.0126429 C85.7301125,14.8217168 85.6760792,14.6629212 85.572185,14.5383129 C85.4664132,14.4137266 85.3201685,14.3092192 85.133451,14.2248127 C84.9450646,14.1404063 84.7255933,14.064027 84.4754544,13.9977093 L83.6789323,13.7846698 C83.1035503,13.629921 82.6475007,13.3947904 82.3145386,13.0792559 C81.9799075,12.7637214 81.8142609,12.3456917 81.8142609,11.8211424 C81.8142609,11.391061 81.9258741,11.0132333 82.1511868,10.6896496 C82.3742047,10.3660879 82.6802545,10.1148588 83.0670413,9.93598442 C83.4557058,9.75511983 83.8944397,9.66666667 84.3830345,9.66666667 C84.879557,9.66666667 85.3143271,9.75511983 85.6896396,9.93598442 C86.0647436,10.1148588 86.3593191,10.3640756 86.5727403,10.6816003 C86.7863702,10.9991472 86.8979834,11.3629108 86.9038248,11.7749035 L85.6837982,11.7749035 Z" id="Path" fill-rule="nonzero"></path>
            </g>
            <g id="Icon" transform="translate(8, 3)">
                <mask id="mask-wsldz76550-2" fill="white">
                    <use xlink:href="#path-wsldz76550-1"></use>
                </mask>
                <g id="Oval"></g>
                <g id="Group" mask="url(#mask-wsldz76550-2)" fill-rule="nonzero">
                    <circle id="Oval" fill="#FFFFFF" cx="15" cy="15" r="15"></circle>
                    <path d="M24.918,26.2533333 L11.5236667,9 L9,9 L9,20.995 L11.0189333,20.995 L11.0189333,11.5639333 L23.3331667,27.4741667 C23.8888333,27.1023333 24.4181667,26.6941667 24.918,26.2533333 Z" id="Path" fill="url(#linearGradient-wsldz76550-3)"></path>
                    <rect id="Rectangle" fill="url(#linearGradient-wsldz76550-4)" x="19.1666667" y="9" width="2" height="12"></rect>
                </g>
            </g>
        </g>
    </g>
</svg>
