<?xml version="1.0" encoding="UTF-8"?>
<svg width="144px" height="36px" viewBox="0 0 144 36" version="1.1" xmlns="http://www.w3.org/2000/svg" xmlns:xlink="http://www.w3.org/1999/xlink">
    <title>TypeScript (dark)</title>
    <g id="TypeScript-(dark)" stroke="none" stroke-width="1" fill="none" fill-rule="evenodd">
        <rect fill="" x="0" y="0" width="144" height="36"></rect>
        <g id="Group" transform="translate(42, 6)" fill="#FFFFFF" fill-rule="nonzero">
            <polygon id="Path" points="12.3564944 2.71348476 7.21678618 2.71348476 7.21678618 18.9117309 5.12911088 18.9117309 5.12911088 2.71348476 0 2.71348476 0 0.790684301 12.3564944 0.790684301"></polygon>
            <path d="M20.4669893,5.97326049 L14.6172595,20.9818861 C13.5751881,23.6594307 12.1092232,25 10.2193649,25 C9.68949804,25 9.24794235,24.9460897 8.89116535,24.8346751 L8.89116535,22.976567 C9.3291886,23.1275158 9.73188739,23.2029902 10.0957293,23.2029902 C11.1236709,23.2029902 11.893744,22.5812248 12.4059486,21.3341001 L13.4232929,18.8829787 L8.45667456,5.97326049 L10.7174397,5.97326049 L14.1580416,15.9286947 C14.200431,16.0544853 14.2852097,16.3851351 14.4194426,16.913456 L14.4936239,16.913456 C14.5360133,16.7121909 14.6172595,16.3923232 14.7408951,15.9538528 L18.3545869,5.97326049 L20.4669893,5.97326049 Z" id="Path"></path>
            <path d="M23.7980854,17.0428407 L23.7486312,17.0428407 L23.7486312,24.8634273 L21.7104101,24.8634273 L21.7104101,5.97326049 L23.7486312,5.97326049 L23.7486312,8.24827487 L23.7980854,8.24827487 C24.8012999,6.53033353 26.2637324,5.67136285 28.1959801,5.67136285 C29.8350348,5.67136285 31.1137801,6.25 32.0322159,7.4072743 C32.9506517,8.56454859 33.4098697,10.117165 33.4098697,12.0651236 C33.4098697,14.2287234 32.8941326,15.9646348 31.8591261,17.2656699 C30.8241195,18.566705 29.4076089,19.2172225 27.6131266,19.2172225 C25.9634745,19.2136285 24.6917941,18.4912306 23.7980854,17.0428407 Z M23.7486312,11.8243243 L23.7486312,13.6321162 C23.7486312,14.703134 24.0912784,15.6088269 24.7730404,16.356383 C25.4548024,17.103939 26.323784,17.4741231 27.3764527,17.4741231 C28.6092762,17.4741231 29.5771663,16.9925244 30.2765905,16.0329212 C30.9760147,15.073318 31.3257268,13.7363427 31.3257268,12.0291834 C31.3257268,10.5879816 30.9972094,9.45945946 30.3437069,8.64361702 C29.6902045,7.82777458 28.8035607,7.41805635 27.6873079,7.41805635 C26.5039387,7.41805635 25.5501784,7.83855664 24.8295595,8.6759632 C24.1089406,9.50977573 23.7486312,10.5592294 23.7486312,11.8243243 Z" id="Shape"></path>
            <path d="M45.7663641,12.9600345 L36.7868876,12.9600345 C36.8186796,14.4012363 37.2001837,15.5117884 37.9278675,16.2952846 C38.6555512,17.0787809 39.6587658,17.470529 40.9339786,17.470529 C42.364619,17.470529 43.6822212,16.9889304 44.8832527,16.0293272 L44.8832527,17.9736918 C43.7669999,18.8003163 42.2869052,19.2136285 40.4500336,19.2136285 C38.6520188,19.2136285 37.242573,18.6278033 36.2146314,17.4525589 C35.1866897,16.2773145 34.6744851,14.6240656 34.6744851,12.492812 C34.6744851,10.480161 35.236144,8.83769408 36.3559292,7.57259919 C37.4792469,6.30391029 38.8710304,5.67136285 40.5348123,5.67136285 C42.1985941,5.67136285 43.4844043,6.21765382 44.3957752,7.31382979 C45.3071461,8.41000575 45.7628316,9.93027602 45.7628316,11.8746406 L45.7628316,12.9600345 L45.7663641,12.9600345 Z M43.6786888,11.2025589 C43.6716239,10.0057504 43.3854958,9.07489937 42.8273694,8.41000575 C42.269243,7.74511213 41.492105,7.41086832 40.4994878,7.41086832 C39.5386626,7.41086832 38.7226677,7.75948821 38.0515031,8.46032202 C37.3803384,9.16115584 36.9670423,10.0740368 36.8080822,11.2025589 L43.6786888,11.2025589 L43.6786888,11.2025589 Z" id="Shape"></path>
            <path d="M47.5467166,18.1785509 L47.5467166,15.6771133 C47.8045851,15.9286947 48.1119079,16.1587119 48.4722173,16.359977 C48.8325268,16.5612421 49.2104984,16.733755 49.6096648,16.8703278 C50.0088311,17.0069005 50.4079975,17.1183151 50.8071638,17.1937895 C51.2098626,17.2692639 51.5807694,17.3087982 51.9198841,17.3087982 C53.092656,17.3087982 53.972235,17.0679988 54.551556,16.5828062 C55.1308771,16.0976136 55.4205376,15.4003738 55.4205376,14.4910868 C55.4205376,14.0023002 55.3251616,13.5782059 55.1308771,13.2152099 C54.9365926,12.8522139 54.6716592,12.5215641 54.329012,12.2232605 C53.9863648,11.9249569 53.583666,11.6374353 53.1173832,11.3642898 C52.6511004,11.0911443 52.1494931,10.8036228 51.6125614,10.4981311 C51.0438376,10.1782634 50.5139708,9.85480161 50.0229609,9.52415181 C49.531951,9.19709603 49.1009926,8.83410006 48.7406832,8.43875791 C48.3768413,8.04341576 48.0907132,7.59416331 47.8822989,7.09459459 C47.6738846,6.59502588 47.5714437,6.00560667 47.5714437,5.33352501 C47.5714437,4.50690052 47.7339362,3.79169063 48.0589212,3.1807073 C48.3839062,2.56972398 48.8113321,2.06656124 49.3447314,1.67121909 C49.8745982,1.27587694 50.4786464,0.981167338 51.1568759,0.787090282 C51.8351054,0.593013226 52.5274648,0.495974698 53.2304214,0.495974698 C54.8376841,0.495974698 56.0069236,0.711615871 56.7416723,1.1393042 L56.7416723,3.52573318 C55.7808471,2.78536515 54.5444912,2.41518114 53.0361369,2.41518114 C52.6193083,2.41518114 52.2024798,2.46549741 51.7856512,2.55894192 C51.3688226,2.65598045 50.9979159,2.81411731 50.6729309,3.0333525 C50.3479459,3.25258769 50.0830125,3.53292122 49.8781306,3.88154112 C49.6732488,4.22656699 49.5708079,4.64706728 49.5708079,5.146636 C49.5708079,5.61026452 49.6485217,6.00920069 49.8039493,6.34703853 C49.9593769,6.68487637 50.1889858,6.99036803 50.4927761,7.27070155 C50.7965665,7.54744106 51.1639408,7.81699252 51.601964,8.07935595 C52.0364548,8.34171938 52.5380621,8.62564692 53.1067858,8.93832662 C53.6896393,9.25819436 54.2442333,9.5960322 54.7670352,9.94824612 C55.2898372,10.30046 55.7490551,10.6922082 56.1411565,11.1234905 C56.533258,11.5547729 56.8476456,12.0291834 57.0772546,12.5503163 C57.3068635,13.0714491 57.4234342,13.6716504 57.4234342,14.343732 C57.4234342,15.2350489 57.2644742,15.993387 56.953619,16.6115584 C56.6392313,17.2297297 56.2153379,17.7328925 55.6819386,18.1210466 C55.1485393,18.5092007 54.5338938,18.7895342 53.8344696,18.9620472 C53.1385778,19.1345601 52.4038292,19.2208166 51.6302236,19.2208166 C51.3723551,19.2208166 51.054435,19.1992524 50.6764633,19.1525302 C50.2984916,19.1058079 49.9099226,19.0375216 49.5178212,18.9512651 C49.1221873,18.8614146 48.7512805,18.753594 48.398036,18.6242093 C48.041259,18.4840426 47.7621958,18.3366878 47.5467166,18.1785509 Z" id="Path"></path>
            <path d="M68.2645095,18.3187177 C67.2860221,18.9153249 66.12738,19.2172225 64.7885831,19.2172225 C62.9764386,19.2172225 61.5104737,18.6170213 60.3977534,17.4166187 C59.285033,16.2162162 58.7269066,14.6600058 58.7269066,12.7479873 C58.7269066,10.6167338 59.3274224,8.90598045 60.5284538,7.61213341 C61.7294853,6.31828637 63.3296831,5.67136285 65.3361122,5.67136285 C66.452365,5.67136285 67.4379173,5.88341001 68.2927691,6.30391029 L68.2927691,8.42797585 C67.3496061,7.75230017 66.3393267,7.41805635 65.2619308,7.41805635 C63.9619909,7.41805635 62.8951923,7.89246694 62.0650676,8.8412881 C61.234943,9.79010926 60.8181144,11.03364 60.8181144,12.5754744 C60.8181144,14.0921507 61.2102158,15.2889592 61.9908863,16.1623059 C62.7715567,17.0356527 63.8242255,17.4777171 65.1382952,17.4777171 C66.2474831,17.4777171 67.2895546,17.103939 68.268042,16.352789 L68.268042,18.3187177 L68.2645095,18.3187177 Z" id="Path"></path>
            <path d="M76.1453955,8.06857389 C75.7886185,7.79183439 75.2764139,7.65166763 74.6052492,7.65166763 C73.7362676,7.65166763 73.0085838,8.06857389 72.4257303,8.90238643 C71.8428768,9.73619896 71.5496838,10.8719091 71.5496838,12.313111 L71.5496838,18.9081369 L69.5114628,18.9081369 L69.5114628,5.96966647 L71.5496838,5.96966647 L71.5496838,8.63642898 L71.5991381,8.63642898 C71.8887986,7.72714204 72.3303543,7.01552616 72.9273376,6.50876941 C73.5243209,5.99841863 74.1884206,5.74324324 74.9267018,5.74324324 C75.4565686,5.74324324 75.8627998,5.80074756 76.1453955,5.9193502 L76.1453955,8.06857389 L76.1453955,8.06857389 Z" id="Path"></path>
            <path d="M78.4838744,2.68832662 C78.1200325,2.68832662 77.8091773,2.56253594 77.5513088,2.31095457 C77.2934402,2.0593732 77.1662722,1.73950546 77.1662722,1.35135135 C77.1662722,0.96319724 77.2934402,0.6433295 77.5513088,0.384560092 C77.8091773,0.129384704 78.1200325,0 78.4838744,0 C78.8547812,0 79.1727013,0.129384704 79.4341022,0.384560092 C79.6955032,0.6433295 79.8262037,0.96319724 79.8262037,1.35135135 C79.8262037,1.72153537 79.6955032,2.03780909 79.4341022,2.30017251 C79.1727013,2.5553479 78.8547812,2.68832662 78.4838744,2.68832662 Z M79.4764916,18.9117309 L77.4382705,18.9117309 L77.4382705,5.97326049 L79.4764916,5.97326049 L79.4764916,18.9117309 Z" id="Shape"></path>
            <path d="M82.7616659,17.0428407 L82.7122117,17.0428407 L82.7122117,24.8634273 L80.6739906,24.8634273 L80.6739906,5.97326049 L82.7122117,5.97326049 L82.7122117,8.24827487 L82.7616659,8.24827487 C83.7648804,6.53033353 85.2273129,5.67136285 87.1595606,5.67136285 C88.7986153,5.67136285 90.0773606,6.25 90.9957964,7.4072743 C91.9142322,8.56454859 92.3734501,10.117165 92.3734501,12.0651236 C92.3734501,14.2287234 91.8577131,15.9646348 90.8227066,17.2656699 C89.7877,18.566705 88.3711894,19.2172225 86.5767071,19.2172225 C84.927055,19.2136285 83.6553746,18.4912306 82.7616659,17.0428407 Z M82.7122117,11.8243243 L82.7122117,13.6321162 C82.7122117,14.703134 83.0548589,15.6088269 83.7366209,16.356383 C84.4183828,17.103939 85.2873644,17.4741231 86.3400332,17.4741231 C87.5728567,17.4741231 88.5407468,16.9925244 89.240171,16.0329212 C89.9395952,15.073318 90.2893073,13.7363427 90.2893073,12.0291834 C90.2893073,10.5879816 89.9607899,9.45945946 89.3072874,8.64361702 C88.653785,7.82777458 87.7671412,7.41805635 86.6508884,7.41805635 C85.4675192,7.41805635 84.5137589,7.83855664 83.79314,8.6759632 C83.0725211,9.50977573 82.7122117,10.5592294 82.7122117,11.8243243 Z" id="Shape"></path>
            <path d="M100,18.7859402 C99.5195874,19.0554917 98.8872797,19.1884704 98.0995443,19.1884704 C95.8741036,19.1884704 94.7578509,17.9233755 94.7578509,15.3967798 L94.7578509,7.74151811 L92.5712671,7.74151811 L92.5712671,5.97326049 L94.7578509,5.97326049 L94.7578509,2.81411731 L96.7960719,2.14562967 L96.7960719,5.97326049 L100,5.97326049 L100,7.74151811 L96.7960719,7.74151811 L96.7960719,15.0301898 C96.7960719,15.8963485 96.9409022,16.5181139 97.2305627,16.8882979 C97.5202233,17.2584819 98.0006358,17.4453709 98.6718005,17.4453709 C99.1840051,17.4453709 99.6290932,17.3016101 100,17.0140886 L100,18.7859402 Z" id="Path"></path>
        </g>
        <g id="Group" transform="translate(8, 4)">
            <rect id="Rectangle" fill="#FFFFFF" fill-rule="nonzero" x="0" y="0" width="26" height="26" rx="2.5"></rect>
            <rect id="Rectangle" fill="#FFFFFF" fill-rule="nonzero" x="0" y="0" width="26" height="26" rx="2.5"></rect>
            <path d="M16.0945586,20.6895 L16.0945586,23.2316602 C16.5078164,23.4435195 16.9965859,23.6023633 17.5608672,23.708293 C18.1251484,23.8142227 18.7198477,23.8671875 19.3450664,23.8671875 C19.9543906,23.8671875 20.5331953,23.8089414 21.081582,23.6923984 C21.6299687,23.5759062 22.1108164,23.3839023 22.5240742,23.1164375 C22.937332,22.8490234 23.2645156,22.4994453 23.5055742,22.0678047 C23.7466328,21.6361641 23.8671875,21.1026055 23.8671875,20.4670781 C23.8671875,20.0062891 23.7983281,19.6024766 23.6605586,19.2555898 C23.5227891,18.9087031 23.3241328,18.600207 23.0644883,18.3301016 C22.8048945,18.0599961 22.4936055,17.817668 22.1306719,17.603168 C21.7677383,17.388668 21.3584414,17.1861016 20.9027812,16.9954687 C20.5689961,16.85775 20.2696406,16.724043 20.0047148,16.5942969 C19.7397891,16.4645 19.514625,16.3321133 19.3291719,16.1970859 C19.1437187,16.0620078 19.000668,15.9190078 18.9000195,15.7680859 C18.7993711,15.6171133 18.7489961,15.4463359 18.7489961,15.2556523 C18.7489961,15.0809141 18.7940391,14.9233398 18.884125,14.7829805 C18.9742109,14.6426211 19.1013672,14.522168 19.2655937,14.4215195 C19.4298711,14.3209219 19.631168,14.2427695 19.8695859,14.1871641 C20.1080547,14.1315586 20.3729297,14.1037812 20.6643633,14.1037812 C20.8762734,14.1037812 21.1001172,14.1196758 21.3358945,14.1514141 C21.5716719,14.1832031 21.8087695,14.232207 22.0472383,14.298375 C22.2856562,14.3645937 22.5174219,14.4480273 22.7426367,14.548625 C22.9678008,14.6492734 23.17575,14.7657656 23.3664844,14.8982031 L23.3664844,12.5228594 C22.9797344,12.3745781 22.5571836,12.2646875 22.0988828,12.1931875 C21.640582,12.1216875 21.1146914,12.0859375 20.5213125,12.0859375 C19.9172695,12.0859375 19.3450664,12.1508359 18.8046523,12.280582 C18.2642383,12.4103281 17.7887227,12.6128945 17.3780547,12.8882812 C16.9674375,13.1637187 16.6429453,13.5145664 16.4045273,13.9409258 C16.1661094,14.3672344 16.046875,14.8769766 16.046875,15.4701523 C16.046875,16.2275039 16.2654375,16.8736445 16.7025625,17.4085742 C17.1396367,17.9434531 17.8032461,18.3962695 18.6933906,18.7670234 C19.0430703,18.9100234 19.3689336,19.050332 19.6709297,19.1880508 C19.9729258,19.3257695 20.2338906,19.4687695 20.4537227,19.6170508 C20.6736055,19.765332 20.847125,19.9268672 20.974332,20.1016562 C21.1014883,20.2763945 21.1650664,20.475 21.1650664,20.6974727 C21.1650664,20.8616484 21.1253047,21.0138906 21.045832,21.15425 C20.9663594,21.2946094 20.8458047,21.4163828 20.6842187,21.5196719 C20.5226328,21.6229609 20.3212852,21.7037031 20.0802266,21.7619492 C19.8391172,21.8202461 19.5570273,21.8493437 19.2338047,21.8493437 C18.6827773,21.8493437 18.137082,21.752707 17.5966172,21.5593828 C17.0562031,21.3661094 16.5555,21.0761484 16.0945586,20.6895 L16.0945586,20.6895 Z M11.8208594,14.4260391 L15.0820312,14.4260391 L15.0820312,12.3398437 L5.9921875,12.3398437 L5.9921875,14.4260391 L9.23741406,14.4260391 L9.23741406,23.7148437 L11.8208594,23.7148437 L11.8208594,14.4260391 Z" id="Shape" fill="#337BEF"></path>
        </g>
    </g>
</svg>
