<?xml version="1.0" encoding="UTF-8"?>
<svg width="184px" height="36px" viewBox="0 0 184 36" version="1.1" xmlns="http://www.w3.org/2000/svg" xmlns:xlink="http://www.w3.org/1999/xlink">
    <title>strapi (dark)</title>
    <g id="strapi-(dark)" stroke="none" stroke-width="1" fill="none" fill-rule="evenodd">
        <rect fill="#0A0A0A" x="0" y="0" width="184" height="36"></rect>
        <g id="Group" transform="translate(8, 4)">
            <path d="M107.062373,3.94366413 C107.518015,4.39963368 108.055656,4.62761846 108.675295,4.62761846 C109.314378,4.62761846 109.862163,4.39963368 110.316959,3.94366413 C110.772602,3.48768614 111,2.94926406 111,2.32836414 C111,1.70746422 110.772602,1.16418207 110.316959,0.698508399 C109.862163,0.232833883 109.314378,0 108.675295,0 C108.055656,0 107.518015,0.232833883 107.062373,0.698508399 C106.607576,1.16418207 106.379332,1.70746422 106.379332,2.32836414 C106.379332,2.94926406 106.607576,3.48768614 107.062373,3.94366413 Z M58.0362951,9.89708747 C58.0362951,9.94476008 57.9975782,9.98340443 57.9498161,9.98340443 L54.7524595,9.98340443 L54.7524595,16.0370668 C54.7524595,16.5415528 54.8784162,16.9102772 55.1302452,17.1430714 C55.3820741,17.37595 55.7502228,17.5069021 56.2345222,17.5360119 C56.6776531,17.5625904 57.217999,17.5608185 57.8557289,17.5306118 L57.9452512,17.5261399 C57.9947885,17.5236086 58.0362951,17.5629279 58.0362951,17.6123724 L58.0362951,20.8494694 C58.0362951,20.8934294 58.0031575,20.9303863 57.9593685,20.9351957 L57.9007859,20.9415239 C55.3958532,21.2089968 53.6246819,20.9615211 52.5874409,20.1990968 C51.5316023,19.4229192 51.003683,18.035604 51.003683,16.0370668 L51.003683,9.98340443 L48.5618977,9.98340443 C48.5141356,9.98340443 48.4754187,9.94476008 48.4754187,9.89708747 L48.4754187,6.460719 C48.4754187,6.41304639 48.5141356,6.37440204 48.5618977,6.37440204 L51.003683,6.37440204 L51.003683,3.97074048 C51.003683,3.90237036 51.0440906,3.84043816 51.1067308,3.81282179 L54.6310677,2.25933589 C54.6882131,2.23413268 54.7524595,2.27591583 54.7524595,2.33829523 L54.7524595,6.37440204 L57.9498161,6.37440204 C57.9975782,6.37440204 58.0362951,6.41304639 58.0362951,6.460719 L58.0362951,9.89708747 Z M64.8342388,8.87672481 C65.1829445,7.94536228 65.7593022,7.24686147 66.5633119,6.78118021 C67.2991021,6.3550208 68.1119879,6.12385504 69.0018849,6.08769979 C69.0449131,6.0859532 69.1108501,6.08466225 69.164107,6.0838162 C69.2122073,6.08307597 69.2514314,6.12185532 69.2514314,6.16986544 L69.2514314,10.1191659 C69.2514314,10.2016016 69.1796614,10.2650525 69.0974091,10.2576274 C68.0163792,10.1596665 67.0457516,10.3978608 66.1855263,10.9722104 C65.2846398,11.573729 64.8342388,12.5729976 64.8342388,13.9700161 L64.8342388,20.8396817 C64.8342388,20.8873544 64.7955219,20.9259987 64.7477598,20.9259987 L61.1718568,20.9259987 C61.1240947,20.9259987 61.0853778,20.8873544 61.0853778,20.8396817 L61.0853778,6.46003555 C61.0853778,6.41236294 61.1240947,6.37371859 61.1718568,6.37371859 L64.7477598,6.37371859 C64.7955219,6.37371859 64.8342388,6.41236294 64.8342388,6.46003555 L64.8342388,8.87672481 Z M82.5599008,6.37395485 C82.5121387,6.37395485 82.4734218,6.41259919 82.4734218,6.46027181 L82.4734218,8.09112235 C81.3497018,6.67469731 79.7707624,5.96649323 77.736519,5.96649323 C75.7991524,5.96649323 74.1378761,6.70865034 72.7526903,8.19298986 C71.3674199,9.6772872 70.6748269,11.496356 70.6748269,13.6500611 C70.6748269,15.8038507 71.3674199,17.6228351 72.7526903,19.1071831 C74.1378761,20.591531 75.7991524,21.333705 77.736519,21.333705 C79.7707624,21.333705 81.3497018,20.6254503 82.4734218,19.2090253 L82.4734218,20.8399349 C82.4734218,20.8876075 82.5121387,20.9262518 82.5599008,20.9262518 L86.1358039,20.9262518 C86.1831433,20.9262518 86.2220293,20.8876075 86.2220293,20.8399349 L86.2220293,6.46027181 C86.2220293,6.41259919 86.1831433,6.37395485 86.1358039,6.37395485 L82.5599008,6.37395485 Z M75.5565377,16.6190946 C76.312109,17.3758657 77.2710708,17.754209 78.4335077,17.754209 C79.5959446,17.754209 80.5598095,17.3709718 81.3250177,16.6045819 C82.0903105,15.8381075 82.4729146,14.853436 82.4729146,13.650483 C82.4729146,12.4474457 82.0903105,11.4627742 81.3250177,10.6963842 C80.5598095,9.92990985 79.5959446,9.54675705 78.4335077,9.54675705 C77.2710708,9.54675705 76.312109,9.92990985 75.5565377,10.6963842 C74.8009664,11.4627742 74.4231808,12.4474457 74.4231808,13.650483 C74.4231808,14.853436 74.8009664,15.8430013 75.5565377,16.6190946 Z M102.504261,8.19298986 C101.118737,6.70865034 99.448331,5.96649323 97.4913523,5.96649323 C95.4574471,5.96649323 93.8876374,6.67469731 92.783614,8.09112235 L92.783614,6.46027181 C92.783614,6.41259919 92.744728,6.37395485 92.6973886,6.37395485 L89.1215701,6.37395485 C89.0733853,6.37395485 89.0344993,6.41259919 89.0344993,6.46027181 L89.0344993,26.660803 C89.0344993,26.7084756 89.0733853,26.74712 89.1215701,26.74712 L92.6973886,26.74712 C92.744728,26.74712 92.783614,26.7084756 92.783614,26.660803 L92.783614,19.2090253 C93.8876374,20.6254503 95.4574471,21.333705 97.4913523,21.333705 C99.448331,21.333705 101.118737,20.591531 102.504261,19.1071831 C103.889785,17.6228351 104.582124,15.8038507 104.582124,13.6500611 C104.582124,11.496356 103.889785,9.6772872 102.504261,8.19298986 Z M93.9172245,16.6190946 C94.6721195,17.3758657 95.6315886,17.754209 96.7939409,17.754209 C97.9562933,17.754209 98.919989,17.3709718 99.6850282,16.6045819 C100.450913,15.8381075 100.83301,14.853436 100.83301,13.650483 C100.83301,12.4474457 100.450913,11.4627742 99.6850282,10.6963842 C98.919989,9.92990985 97.9562933,9.54675705 96.7939409,9.54675705 C95.6315886,9.54675705 94.6721195,9.92990985 93.9172245,10.6963842 C93.1614842,11.4627742 92.783614,12.4474457 92.783614,13.650483 C92.783614,14.853436 93.1614842,15.8430013 93.9172245,16.6190946 Z M106.901757,20.9265893 C106.854418,20.9265893 106.815532,20.887945 106.815532,20.8402724 L106.815532,6.46068525 C106.815532,6.41301264 106.854418,6.37436829 106.901757,6.37436829 L110.477575,6.37436829 C110.52576,6.37436829 110.564646,6.41301264 110.564646,6.46068525 L110.564646,20.8402724 C110.564646,20.887945 110.52576,20.9265893 110.477575,20.9265893 L106.901757,20.9265893 Z M39.98416,11.4527334 C39.4707807,11.2101515 39.2140488,10.8948373 39.2140488,10.5067907 C39.2140488,10.1381506 39.3739039,9.8471367 39.6935297,9.63366465 C40.01324,9.42019259 40.4152025,9.31354094 40.8995865,9.31354094 C41.8282849,9.31354094 42.529923,9.67610593 43.0043318,10.4012359 C43.0374694,10.4518617 43.1018004,10.4723651 43.1571706,10.4478116 L46.320037,9.04640556 C46.3671228,9.02556461 46.385636,8.96852623 46.3594302,8.92422867 C46.3246019,8.86541839 46.2786995,8.78863595 46.2481825,8.74062583 C45.7059768,7.88712575 45.0047614,7.25129123 44.1252622,6.76686999 C43.1565789,6.23328267 42.0813818,5.96649323 40.8995865,5.96649323 C39.330284,5.96649323 38.0177135,6.37880648 36.9618748,7.20343299 C35.9060362,8.02806793 35.3780324,9.15828854 35.3780324,10.5941201 C35.3780324,11.5448723 35.6347643,12.3355627 36.1481437,12.9661068 C36.6616075,13.5967353 37.2864036,14.0575143 38.0226165,14.3486126 C38.7587448,14.6396265 39.4949576,14.8822083 40.2311705,15.0761895 C40.9673833,15.270255 41.5921794,15.4885365 42.1055587,15.731034 C42.6190226,15.9736158 42.87567,16.2889301 42.87567,16.6769767 C42.87567,17.5112896 42.2073385,17.9284461 40.8705065,17.9284461 C39.5980054,17.9284461 38.7162238,17.4574575 38.2251616,16.5155649 C38.1829788,16.434648 38.0864402,16.3976068 38.0029199,16.434648 L34.8489296,17.8342821 C34.8044643,17.8539418 34.7850214,17.9064239 34.806155,17.9501308 C34.8189198,17.9765406 34.8323608,18.0041316 34.8422514,18.0238757 C35.944415,20.2304004 37.9538897,21.333705 40.8705065,21.333705 C42.5366858,21.333705 43.9266901,20.9310613 45.0406886,20.1258582 C46.1546871,19.3206551 46.7116864,18.171028 46.7116864,16.6769767 C46.7116864,15.6874114 46.4549544,14.8628018 45.9415751,14.2030635 C45.4281958,13.5434095 44.8033997,13.0728428 44.0671868,12.7915322 C43.330974,12.5101373 42.5947611,12.277343 41.8585483,12.0929808 C41.1223354,11.908703 40.4975394,11.6952309 39.98416,11.4527334 Z" id="Shape" fill="#FFFFFF"></path>
            <rect id="Rectangle" fill="#444444" fill-rule="nonzero" x="0" y="0.252964382" width="26.7972515" height="26.7470356" rx="4.7697979"></rect>
            <path d="M18.5800544,8.32144435 L9.4356805,8.32144435 L9.4356805,12.8805492 L14.0124746,12.8805492 C14.0861889,12.8805492 14.1460394,12.9402877 14.1460394,13.0138638 L14.1460394,17.5818282 L18.7136192,17.5818282 L18.7136192,8.45475891 C18.7136192,8.38114058 18.6538532,8.32144435 18.5800544,8.32144435 Z" id="Path" fill="#FFFFFF"></path>
            <path d="M9.43652585,8.3213431 L9.43652585,12.8802961 L5.03013685,12.8802961 C4.97063287,12.8802961 4.94083438,12.8084919 4.98291576,12.7664725 L9.43652585,8.3213431 Z" id="Path" fill="#FFFFFF" opacity="0.42"></path>
            <path d="M14.2604994,22.0268564 C14.2184857,22.0688758 14.1465466,22.0390909 14.1465466,21.97969 L14.1465466,17.5816595 L18.7141264,17.5816595 L14.2604994,22.0268564 Z" id="Path" fill="#FFFFFF" opacity="0.42"></path>
            <path d="M9.4376248,12.8804649 L14.0812013,12.8804649 C14.1180584,12.8804649 14.1479837,12.9103341 14.1479837,12.9471222 L14.1479837,17.5819126 L9.57118965,17.5819126 C9.49739085,17.5819126 9.4376248,17.5221742 9.4376248,17.4485137 L9.4376248,12.8804649 Z" id="Path" fill="#FFFFFF" fill-rule="nonzero" opacity="0.42"></path>
        </g>
    </g>
</svg>