<?xml version="1.0" standalone="no"?>
<!DOCTYPE svg PUBLIC "-//W3C//DTD SVG 20010904//EN"
 "http://www.w3.org/TR/2001/REC-SVG-20010904/DTD/svg10.dtd">
<svg version="1.0" xmlns="http://www.w3.org/2000/svg"
 width="600.000000pt" height="600.000000pt" viewBox="0 0 600.000000 600.000000"
 preserveAspectRatio="xMidYMid meet">
<metadata>
Created by potrace 1.14, written by Peter Selinger 2001-2017
</metadata>
<g transform="translate(0.000000,600.000000) scale(0.100000,-0.100000)"
fill="#000000" stroke="none">
<path d="M650 5985 c-303 -62 -539 -282 -626 -585 -18 -63 -19 -152 -22 -2355
-2 -1707 0 -2309 9 -2365 48 -313 275 -566 589 -656 63 -18 152 -19 2355 -22
1707 -2 2309 0 2365 9 313 48 566 275 656 589 18 63 19 152 22 2355 2 1707 0
2309 -9 2365 -48 313 -275 566 -589 656 -63 18 -150 19 -2375 21 -1880 1
-2322 -1 -2375 -12z m2710 -510 c545 -84 1019 -323 1406 -709 281 -282 480
-603 604 -972 147 -442 169 -919 63 -1369 -106 -451 -334 -857 -667 -1191
-584 -583 -1396 -838 -2211 -694 -60 11 -129 25 -151 32 l-41 13 47 83 c51 88
93 208 109 311 6 35 13 66 15 69 3 2 45 -3 93 -12 429 -80 861 -22 1248 168
204 100 344 197 499 346 352 337 564 767 616 1252 55 519 -114 1071 -452 1473
-348 414 -811 660 -1347 714 -575 59 -1156 -144 -1580 -553 -621 -599 -786
-1527 -411 -2305 33 -68 59 -125 58 -127 -2 -1 -43 -22 -91 -47 -104 -54 -173
-105 -252 -188 -43 -45 -60 -57 -67 -47 -5 7 -44 85 -88 173 -257 517 -326
1116 -193 1680 56 236 162 498 290 713 193 325 513 647 843 848 300 183 691
315 1045 353 128 14 488 6 615 -14z m-715 -1240 c88 -23 170 -72 227 -134 55
-60 104 -153 115 -214 3 -21 11 -40 17 -43 6 -2 165 -28 354 -58 l343 -55 41
39 c80 78 205 118 315 100 335 -55 433 -492 151 -680 -31 -21 -80 -44 -108
-51 l-50 -13 -162 -486 -162 -487 42 -49 c105 -125 120 -293 37 -424 -35 -56
-110 -117 -174 -141 -46 -17 -72 -20 -141 -17 -136 7 -229 64 -290 180 -29 54
-35 75 -38 148 -3 69 0 96 17 141 41 109 147 197 262 220 l57 11 157 476 c148
449 156 476 139 489 -22 16 67 107 -844 -857 -398 -421 -759 -802 -803 -847
l-80 -82 26 -80 c80 -241 -25 -481 -258 -587 -85 -39 -227 -46 -322 -15 -262
85 -394 366 -292 622 50 129 151 222 291 270 92 31 238 25 323 -14 l59 -28 62
63 c34 35 424 446 868 915 778 823 806 853 806 890 0 21 -4 44 -9 51 -5 9
-116 31 -312 63 -167 27 -313 49 -324 49 -14 0 -28 -15 -45 -47 -13 -27 -50
-74 -82 -105 -204 -203 -543 -173 -708 63 -73 104 -102 230 -80 349 48 269
314 442 575 375z"/>
</g>
</svg>
