<?xml version="1.0" encoding="UTF-8"?>
<svg width="184px" height="36px" viewBox="0 0 184 36" version="1.1" xmlns="http://www.w3.org/2000/svg" xmlns:xlink="http://www.w3.org/1999/xlink">
    <title>Svelte Kit (dark)</title>
    <g id="Svelte-Kit-(dark)" stroke="none" stroke-width="1" fill="none" fill-rule="evenodd">
        <rect fill="#0A0A0A" x="0" y="0" width="184" height="36"></rect>
        <g id="Group" transform="translate(10, 3)" fill-rule="nonzero">
            <path d="M138.248864,22.986157 L133.82408,14.6321759 L131.038525,18.0561055 L131.038525,22.986157 L128.702644,22.986157 L128.702644,7.00835454 L131.038525,7.00835454 L131.038525,14.7462801 L137.103328,7.00835454 L139.798738,7.00835454 L135.396885,12.6235669 L140.98961,22.986157 L138.248864,22.986157 Z M146.042778,22.986157 L146.042778,7.00835454 L148.378659,7.00835454 L148.378659,22.986157 L146.042778,22.986157 Z M160.552811,9.29097427 L160.552811,22.986157 L158.216667,22.986157 L158.216667,9.29097427 L153.769478,9.29097427 L153.769478,7.00835454 L165,7.00835454 L165,9.29097427 L160.552811,9.29097427 Z" id="kit" fill="#FFFFFF"></path>
            <path d="M39.3822108,23.2598999 C38.1013163,23.2926498 36.8406669,22.930623 35.7661024,22.2214445 C34.7621488,21.5485971 34.0165654,20.5452365 33.6545313,19.3798214 L35.855721,18.5580568 C36.16104,19.2735239 36.6595708,19.8864586 37.2935715,20.3258684 C37.9372287,20.7641418 38.697697,20.9912256 39.4723565,20.9764766 C40.217011,21.0160017 40.9518611,20.789951 41.5499252,20.337386 C42.0774258,19.8871945 42.3647096,19.2102856 42.3248621,18.5114509 C42.3278449,18.1902882 42.2546092,17.8731261 42.1113591,17.5868319 C41.9868,17.3307195 41.8239016,17.0957899 41.6284733,16.8904212 C41.3813643,16.6617198 41.1010477,16.4730821 40.797393,16.3311499 C40.4227524,16.1413334 40.1119869,15.9967836 39.8650966,15.8975004 C39.6182063,15.7982173 39.2550754,15.6650957 38.7757041,15.4981357 C38.1768413,15.2851055 37.7276942,15.1177884 37.4282629,14.9961844 C37.0226533,14.8207409 36.6287269,14.6186214 36.2489882,14.3911107 C35.8402622,14.1708038 35.4686944,13.8857187 35.1482616,13.5465789 C34.8710148,13.2156575 34.6474173,12.8419662 34.4858751,12.4395538 C33.8491959,10.866306 34.2737809,9.05558782 35.540211,7.94315187 C36.4386808,7.13674409 37.6589867,6.73345091 39.2011286,6.73327234 C40.4889998,6.73327234 41.5485195,7.02237203 42.3796876,7.60057142 C43.1864567,8.14572655 43.7787779,8.96192478 44.0529185,9.90622627 L41.8968017,10.636386 C41.6801763,10.1418872 41.3143348,9.73025567 40.8522185,9.46105917 C40.2933633,9.14584944 39.6603672,8.99182342 39.0216279,9.01562423 C38.3952386,8.97917205 37.7747579,9.1558883 37.2582512,9.51784342 C36.8302422,9.85507673 36.591305,10.3834865 36.6182694,10.9331641 C36.6220682,11.3531108 36.8017137,11.7515326 37.1122257,12.0286716 C37.4106872,12.3273679 37.7610128,12.5673019 38.1454748,12.7363319 C38.5053548,12.8884708 39.0520279,13.0938227 39.7854942,13.3523874 C40.2342898,13.5200617 40.5673721,13.6455942 40.784741,13.7289849 C41.0021099,13.8123756 41.3203436,13.9530862 41.7394421,14.1511169 C42.0754449,14.3021243 42.3984856,14.4813106 42.7052137,14.6868173 C42.9798808,14.8875014 43.2424435,15.1047616 43.4914847,15.3374256 C43.7623209,15.5760393 43.9937043,15.8572892 44.176803,16.1704398 C44.35126,16.4951782 44.4869127,16.8399339 44.5808772,17.1973776 C44.6955879,17.6173605 44.7523611,18.051494 44.749669,18.4873444 C44.749669,19.9787345 44.2478828,21.1465615 43.2445065,21.9908255 C42.2411303,22.8350894 40.9536983,23.2581143 39.3822108,23.2598999 Z M53.7799574,22.986157 L48.3891383,7.00835454 L50.9050471,7.00835454 L54.4763462,18.1471746 C54.6736765,18.7463131 54.8386621,19.3559551 54.9705661,19.9733775 C55.1019727,19.3558309 55.2669657,18.7461613 55.4647861,18.1471746 L58.9910123,7.00835454 L61.484253,7.00835454 L56.1158385,22.986157 L53.7799574,22.986157 Z M66.2458972,22.986157 L66.2458972,7.00835454 L75.9942864,7.00835454 L75.9942864,9.24543973 L68.5820418,9.24543973 L68.5820418,13.6277375 L73.3663543,13.6277375 L73.3663543,15.8648227 L68.5820418,15.8648227 L68.5820418,20.7490718 L76.4895606,20.7490718 L76.4895606,22.986157 L66.2458972,22.986157 Z M82.4404957,22.986157 L82.4404957,7.00835454 L84.7769039,7.00835454 L84.7769039,20.7035372 L92.4585312,20.7035372 L92.4585312,22.986157 L82.4404957,22.986157 Z M101.263026,9.29097427 L101.263026,22.986157 L98.9268816,22.986157 L98.9268816,9.29097427 L94.4796931,9.29097427 L94.4796931,7.00835454 L105.710478,7.00835454 L105.710478,9.29097427 L101.263026,9.29097427 Z M110.538809,22.986157 L110.538809,7.00835454 L120.287199,7.00835454 L120.287199,9.24543973 L112.875745,9.24543973 L112.875745,13.6277375 L117.659794,13.6277375 L117.659794,15.8648227 L112.875745,15.8648227 L112.875745,20.7490718 L120.783264,20.7490718 L120.783264,22.986157 L110.538809,22.986157 Z" id="svelte-2" fill="#ABABC1"></path>
            <g id="logo">
                <path d="M22.9988862,3.96959358 C20.257613,-0.017357222 14.8433349,-1.19991603 10.9288495,1.33528648 L4.05405262,5.78802885 C2.17601693,6.98852675 0.882463688,8.9373638 0.490661072,11.1565512 C0.162717363,13.005126 0.450910204,14.9120454 1.30961643,16.5754294 C0.721024669,17.4825177 0.31966129,18.5015291 0.129814631,19.5707986 C-0.265902798,21.8325467 0.251624731,24.1609297 1.56555646,26.0302749 C4.30682964,30.0177614 9.72137134,31.1997845 13.6353296,28.664582 L20.51039,24.2118397 C22.388449,23.0113662 23.6820099,21.0625175 24.0737815,18.8433173 C24.4015602,16.9946818 24.1134741,15.0877607 23.2550898,13.4241713 C23.8433781,12.5170757 24.2445527,11.4981794 24.4343644,10.4290699 C24.830386,8.16731469 24.312832,5.83881243 22.9986226,3.96959358" id="orange" fill="#FFFFFF"></path>
                <path d="M10.2572375,26.4055331 C8.04118021,26.9908903 5.70107126,26.1093985 4.39592102,24.1976436 C3.60590295,23.073679 3.2946526,21.6737468 3.53241997,20.3138151 C3.57225472,20.0928139 3.62712395,19.874886 3.69663278,19.6615998 L3.8260525,19.2598245 L4.17846425,19.5225855 C4.99159461,20.1301308 5.9008477,20.5921158 6.86702064,20.8886218 L7.1224335,20.9673697 L7.09897453,21.2266488 C7.06768067,21.5953116 7.16592163,21.96332 7.37626485,22.265372 C7.76926336,22.8417122 8.47448982,23.1075112 9.14227739,22.9309798 C9.29143273,22.8906746 9.43365199,22.8274466 9.56401172,22.7434847 L16.4393357,18.289403 C16.77943,18.0717373 17.0137876,17.7187881 17.0851164,17.3168388 C17.1563495,16.906883 17.0625154,16.4850337 16.8246955,16.1460654 C16.4316392,15.5697846 15.7265672,15.30383 15.0586829,15.4799219 C14.9095126,15.5201833 14.7672869,15.5834142 14.6369486,15.6674171 L12.0132339,17.3669268 C11.5815201,17.6457048 11.1104172,17.8558032 10.6162389,17.9899465 C8.40018156,18.5753036 6.06007261,17.6938119 4.75492237,15.782057 C3.96467335,14.6581952 3.65331398,13.2581999 3.89115774,11.8982285 C4.12745597,10.5636002 4.90616284,9.3919002 6.036204,8.67063312 L12.9107373,4.2181586 C13.3423326,3.93896564 13.8134587,3.72858593 14.3077322,3.5943354 C16.5237936,3.00889619 18.8639481,3.89040505 20.1690488,5.80222491 C20.959159,6.92614987 21.2705051,8.32608551 21.0328134,9.68605337 C20.9924281,9.90738588 20.9372106,10.1256563 20.8675463,10.3393401 L20.7381265,10.7411155 L20.3859784,10.4788901 C19.572894,9.87126838 18.6636275,9.40927659 17.697422,9.11285386 L17.4417455,9.03410589 L17.4654681,8.77482686 C17.4964168,8.40619558 17.3982075,8.03830569 17.1881778,7.73610364 C16.795372,7.1603101 16.0908581,6.89458142 15.4234831,7.07049579 C15.2743196,7.11077713 15.1320969,7.17400669 15.0017488,7.25799096 L8.12563405,11.7104655 C7.78558457,11.9280037 7.55129742,12.2808937 7.48011693,12.6827618 C7.40853795,13.0927348 7.50219438,13.5147362 7.74001072,13.8538031 C8.13311652,14.430019 8.83814311,14.6959565 9.50602325,14.5199466 C9.6551446,14.4795426 9.79734951,14.416321 9.92775759,14.3324515 L12.5509452,12.6337453 C12.9824918,12.3545228 13.4536364,12.1442251 13.9479401,12.0101899 C16.1633107,11.4250077 18.5027291,12.3059028 19.8079387,14.2167402 C20.5981878,15.3406019 20.9095471,16.7405972 20.6717034,18.1005686 C20.4359325,19.435116 19.658064,20.6070951 18.5287658,21.3292354 L11.6542325,25.7817099 C11.2226587,26.0609439 10.7515262,26.2713265 10.2572375,26.4055331" id="white" fill="#0A0A0A"></path>
            </g>
        </g>
    </g>
</svg>