<?xml version="1.0" encoding="UTF-8"?>
<svg width="124px" height="36px" viewBox="0 0 124 36" version="1.1" xmlns="http://www.w3.org/2000/svg" xmlns:xlink="http://www.w3.org/1999/xlink">
    <title>AWS (dark)</title>
    <g id="AWS-(dark)" stroke="none" stroke-width="1" fill="none" fill-rule="evenodd">
        <rect fill="" x="0" y="0" width="124" height="36"></rect>
        <g id="Group" transform="translate(8, 5)" fill="#FFFFFF" fill-rule="nonzero">
            <path d="M45.8399979,1 C43.924933,1 41.7871277,1.74518926 41.3391348,4.19813914 C41.2914047,4.45865934 41.4622282,4.58299852 41.62719,4.62106154 L43.589985,4.85874392 C43.7716943,4.84943963 43.8947877,4.64982026 43.9299572,4.46204272 C44.0974312,3.61788962 44.7849119,3.21949672 45.55278,3.21949672 C45.9672781,3.21949672 46.4328558,3.36329034 46.6782052,3.74814971 C46.9595614,4.17699302 46.9394646,4.75978008 46.9394646,5.25459928 L46.9394646,5.54556989 C45.7730083,5.68090505 44.237272,5.762952 43.1453416,6.25946289 C41.8851,6.82533305 41,7.97652781 41,9.66906323 C41,11.8378093 42.3155081,12.9204906 44.0095073,12.9204906 C45.4397351,12.9204906 46.2302123,12.5813068 47.3330284,11.414041 C47.698959,11.9638401 47.8161908,12.2133643 48.484412,12.7885388 C48.6359661,12.8758645 48.8259495,12.8546933 48.9550139,12.7360964 L48.9550139,12.7623176 C49.3569514,12.3918376 50.0879753,11.7185451 50.4991239,11.3615986 C50.6632484,11.2228801 50.6272415,10.994502 50.4991239,10.8067245 C50.1315185,10.280609 49.7404668,9.85599492 49.7404668,8.87735251 L49.7404668,5.62592514 C49.7404668,4.24888983 49.8560238,2.9792768 48.8771385,2.0310848 C48.1042461,1.26390357 46.8180459,1 45.8399979,1 L45.8399979,1 Z M72.2171491,1 C70.3012468,1 68.1651163,1.74518926 67.716286,4.19813914 C67.6685559,4.45865934 67.838542,4.58299852 68.0043413,4.62106154 L69.9671363,4.85874392 C70.1488455,4.84943963 70.2727763,4.64982026 70.3071084,4.46204272 C70.4754198,3.61788962 71.1620631,3.21949672 71.9299313,3.21949672 C72.3452667,3.21949672 72.810007,3.36329034 73.0553564,3.74814971 C73.3358753,4.17699302 73.2906573,4.75978008 73.2906573,5.25459928 L73.2906573,5.54556989 C72.1242011,5.68090505 70.6152605,5.762952 69.5224928,6.25946289 C68.2614138,6.82533305 67.3771512,7.97652781 67.3771512,9.66906323 C67.3771512,11.8378093 68.6934967,12.9204906 70.3866586,12.9204906 C71.8152116,12.9204906 72.6056887,12.5813068 73.7101796,11.414041 C74.0752729,11.9638401 74.193342,12.2133643 74.8615632,12.7885388 C75.0122898,12.8697399 75.1990233,12.8612815 75.3321651,12.7360964 L75.3321651,12.7623176 C75.7341026,12.3918376 76.4651265,11.7185451 76.8762751,11.3615986 C77.0395623,11.2228801 77.0018806,10.994502 76.8762751,10.8067245 C76.5086698,10.280609 76.117618,9.85599492 76.117618,8.87735251 L76.117618,5.62592514 C76.117618,4.24888983 76.2055419,2.9792768 75.2283312,2.0310848 C74.4546014,1.26390357 73.1951971,1 72.2171491,1 L72.2171491,1 Z M57.3797922,1.1057306 C56.1421595,1.1057306 55.2244021,1.73673081 54.7370529,3.08839078 L54.7110944,3.08839078 L54.7110944,1.68767181 C54.6973763,1.48908395 54.5409245,1.33104877 54.3443264,1.3171918 L52.4602442,1.3171918 C52.2446646,1.3203713 52.0706653,1.49613157 52.0675177,1.713893 L52.0675177,12.4189046 C52.0859354,12.615294 52.2398641,12.7707806 52.4342857,12.7893846 L54.4489976,12.7893846 C54.6649488,12.7870955 54.8394579,12.6108202 54.8417241,12.3926834 L54.8417241,6.70945232 C54.8417241,5.4702897 54.7822709,3.77521675 56.2284086,3.77521675 C57.6561243,3.77521675 57.458505,5.51681117 57.458505,6.70945232 L57.458505,12.3926834 C57.458505,12.5948403 57.6217921,12.7758511 57.825273,12.7893846 L59.8399849,12.7893846 C60.0559361,12.7870955 60.2304452,12.6108202 60.2327114,12.3926834 L60.2327114,6.70945232 C60.2327114,6.10128991 60.2084277,5.21569042 60.4160954,4.67434976 C60.6229258,4.13300909 61.1312093,3.77606259 61.6202333,3.77606259 C62.2030427,3.77606259 62.6476861,3.98160288 62.7975753,4.70141679 C62.8913608,5.12941425 62.8494923,6.26030873 62.8494923,6.71029816 L62.8494923,12.3935293 C62.8494923,12.5956862 63.0127794,12.776697 63.2162603,12.7902305 L65.2309722,12.7902305 C65.4469234,12.7879414 65.6214325,12.6116661 65.6236987,12.3935293 L65.6236987,5.62677099 C65.6236987,4.47726792 65.7384184,3.17212941 65.1003425,2.26961303 C64.5367926,1.45929372 63.6156857,1.10657644 62.7716169,1.10657644 C61.5875759,1.10657644 60.4864345,1.73757665 59.9982478,3.08923663 C59.4338605,1.73757665 58.6383591,1.1057306 57.3797922,1.1057306 L57.3797922,1.1057306 Z M91.6340819,1.1057306 C88.7225468,1.1057306 87.1072603,3.69147811 87.1072603,7.02664411 C87.1072603,10.3389723 88.7049621,13 91.6340819,13 C94.4518315,13 96.2396162,10.3998731 96.2396162,7.13152886 C96.2396162,3.75407063 94.6201429,1.1057306 91.6340819,1.1057306 Z M103.121122,1.1057306 C101.730251,1.1057306 100.935587,1.80862762 100.373711,3.27278494 L100.347753,3.27278494 L100.347753,1.63353775 C100.311746,1.46775217 100.156833,1.35271728 99.9809849,1.34256714 L98.1228611,1.34256714 C97.9240244,1.33804809 97.7541918,1.48655536 97.7301346,1.68598012 L97.7301346,12.3909918 C97.734058,12.5984745 97.892246,12.7695728 98.0969026,12.787693 L100.085656,12.787693 C100.301236,12.7845135 100.475235,12.6087532 100.478383,12.3909918 L100.478383,6.62909706 C100.478383,5.90674561 100.538673,5.24783252 100.818355,4.5939945 C101.044445,4.07549165 101.480714,3.74814971 101.969738,3.74814971 C103.358098,3.74814971 103.225793,5.45760203 103.225793,6.62909706 L103.225793,12.44428 C103.252307,12.6319389 103.405308,12.7751975 103.592561,12.787693 L105.607273,12.787693 C105.804892,12.787693 105.976553,12.6354409 106,12.44428 L106,5.70374286 C106,4.667583 106.002512,3.22795517 105.476643,2.37280609 C104.913093,1.44998943 104.021295,1.1057306 103.121122,1.1057306 L103.121122,1.1057306 Z M78.9420666,1.29097061 C78.7377484,1.29097061 78.576136,1.4550645 78.5752986,1.68767181 L78.5752986,3.22034257 C78.576136,3.4495665 78.7327242,3.61535208 78.9420666,3.61704377 L82.3962174,3.61704377 L78.4446689,9.5117361 C78.2035064,9.89152041 78.1834095,10.3220554 78.1834095,10.5690421 L78.1834095,12.1287799 C78.1834095,12.3537746 78.4254094,12.5982237 78.6540114,12.4721929 C80.905699,11.2304927 83.6045421,11.3404525 85.6410257,12.4459717 C85.8880498,12.5821527 86.1384234,12.3267075 86.1384234,12.1025587 L86.1384234,10.4633115 C86.1267753,10.2174239 85.9872782,9.99608755 85.7716554,9.88137027 C84.6160849,9.20976951 83.2746184,9.00422922 82.0034909,9.03552548 L85.4316832,3.96045676 C85.7490464,3.50454642 85.9265688,3.22964686 85.9290809,3.00888137 L85.9290809,1.68767181 C85.9290809,1.46013956 85.7750048,1.29097061 85.5623129,1.29097061 L78.9420666,1.29097061 L78.9420666,1.29097061 Z M91.6340819,3.29985198 C92.2721577,3.29985198 92.7427596,3.5874392 92.9688495,4.33093677 C93.2301089,5.18777754 93.2569047,6.2577712 93.2569047,7.15944174 C93.2569047,8.53309368 93.1932646,10.8067245 91.6340819,10.8067245 C90.0573144,10.8067245 90.0640131,7.99175301 90.0640131,6.68323113 C90.0640131,5.37809262 90.1502625,3.29985198 91.6340819,3.29985198 L91.6340819,3.29985198 Z M46.9126687,7.21188412 L46.9126687,7.6610277 C46.9126687,8.47388454 46.9419767,9.15817298 46.5459007,9.88137027 C46.2260254,10.4692324 45.7236035,10.8329457 45.1592162,10.8329457 C44.3888359,10.8329457 43.9291198,10.2019454 43.9291198,9.3002749 C43.9299572,7.52230916 45.4589946,7.21188412 46.9126687,7.21188412 L46.9126687,7.21188412 Z M73.2898199,7.21188412 L73.2898199,7.6610277 C73.2898199,8.47388454 73.3191279,9.15817298 72.9230519,9.88137027 C72.6031766,10.4692324 72.1032668,10.8329457 71.5363674,10.8329457 C70.7651497,10.8329457 70.3062711,10.2019454 70.3062711,9.3002749 C70.3071084,7.52230916 71.8344711,7.21188412 73.2898199,7.21188412 L73.2898199,7.21188412 Z" id="Shape"></path>
            <path d="M86.1882345,13 L86.1882345,14.4833668 L87.2124709,14.4833668 L87.2124709,13 L86.1882345,13 Z M56.4912605,13.2554142 L56.4912605,23.8207189 L57.4365155,23.8207189 L57.4365155,22.8743767 C57.63817,23.2493116 57.8675519,23.5301034 58.1456669,23.7183895 C58.4229417,23.9066756 58.7413877,24 59.090922,24 C59.7849493,24 60.384031,23.654536 60.9024509,22.9513284 C61.4208708,22.2481209 61.6905835,21.2289201 61.6905835,19.9322021 C61.6905835,19.0832775 61.5788334,18.38007 61.3494515,17.783285 C61.1200696,17.1881372 60.8133868,16.7452556 60.4302434,16.4530029 C60.0471,16.1607502 59.6118626,15.99293 59.1438563,15.99293 C58.8185373,15.9895799 58.4992147,16.0783079 58.2246482,16.2483441 C57.9515745,16.4186202 57.7305949,16.6961375 57.5154969,17.0416015 L57.5154969,13.2554142 L56.4912605,13.2554142 Z M66.2068023,15.7375158 C65.49429,15.7375158 64.9288174,15.9429932 64.5263488,16.3514921 C64.1238802,16.7591724 63.9222258,17.2855548 63.9222258,17.938007 C63.9222258,18.3170351 64.0096094,18.6371214 64.1583295,18.9359232 C64.3070496,19.234725 64.5213074,19.4745851 64.7884995,19.6522289 C65.0573721,19.8298727 65.5934368,20.0631837 66.3899717,20.3169606 C66.9411605,20.4896926 67.2705293,20.637047 67.4142081,20.7516559 C67.6225843,20.9194761 67.7292931,21.1396889 67.7292931,21.4425839 C67.7292931,21.7929597 67.6049396,22.0852125 67.3612738,22.3119744 C67.1184483,22.5403736 66.7806772,22.6443403 66.3370374,22.6443403 C65.8933977,22.6443403 65.5278991,22.5231823 65.260707,22.2604004 C64.9935149,21.9976185 64.8489959,21.5981246 64.7884995,21.0578254 L63.7642631,21.2624842 C63.9953255,22.9038476 64.8355522,23.7192082 66.2849434,23.7183901 C67.057952,23.7183901 67.6494716,23.5047258 68.0964722,23.0536578 C68.5434729,22.6025899 68.7787363,21.9935253 68.7787363,21.2624842 C68.7787363,20.8679021 68.7073171,20.5257126 68.5686797,20.2391903 C68.4300422,19.952668 68.2393108,19.7406415 67.9906037,19.5744586 C67.7410563,19.4090943 67.1848262,19.1880628 66.3361972,18.9097269 C65.7194708,18.6993376 65.3581733,18.5454342 65.2338197,18.4496539 C65.0246033,18.2875642 64.9187347,18.0665327 64.9187347,17.7849222 C64.9187347,17.4967627 65.016201,17.2528094 65.2338197,17.0686165 C65.4514384,16.8844236 65.7866889,16.787006 66.2320091,16.787006 C67.0151004,16.787006 67.4528585,17.2061472 67.5444433,18.0403364 L68.5426326,17.886433 C68.473734,17.3584133 68.3552621,16.9417281 68.1746133,16.6584803 C67.9939646,16.3752326 67.7267725,16.1361911 67.3864806,15.9675523 C67.047029,15.7997321 66.6563236,15.7375158 66.2068023,15.7375158 L66.2068023,15.7375158 Z M72.4824558,15.7375158 C71.6615543,15.7375158 70.9692075,16.0666071 70.433983,16.7608097 C69.8987586,17.4550123 69.6458503,18.4602962 69.6458503,19.779936 C69.6458503,21.0512763 69.9038,22.0475553 70.433983,22.7221106 C70.9641661,23.3958473 71.6514716,23.7200268 72.5085029,23.7200268 C73.1899267,23.7200268 73.7545591,23.5210985 74.2150034,23.1060505 C74.6762879,22.6910025 75.0106981,22.0803007 75.1863055,21.2641215 L74.1360221,21.0848404 C73.8343807,22.1302374 73.2781506,22.6435216 72.5076626,22.6451589 C72.0169702,22.6451589 71.6161821,22.4421374 71.2733695,22.0058049 C70.930557,21.5686537 70.7364647,20.9202947 70.6952935,20.0615465 L75.2115123,20.0615465 L75.2115123,19.7029843 C75.2115123,18.4119967 74.9476811,17.4427328 74.4233796,16.7608097 C73.9007586,16.0788867 73.2647069,15.7375158 72.4824558,15.7375158 Z M78.7051751,15.7375158 C78.4598289,15.7375158 78.2455711,15.8185607 78.048958,15.99293 C77.8523449,16.1672992 77.6288446,16.529136 77.3927409,17.0669792 L77.3927409,15.8897819 L76.4735329,15.8897819 L76.4735329,23.5391084 L77.4977693,23.5391084 L77.4977693,19.5490809 C77.4977693,18.992409 77.5515438,18.4570217 77.6817789,17.962566 C77.7557189,17.6793183 77.8951965,17.4558309 78.0758453,17.2978343 C78.256494,17.1398378 78.4623496,17.0677979 78.6799683,17.0677979 C78.9211134,17.0677979 79.160578,17.1619409 79.4151667,17.3494084 L79.7562987,16.1468334 C79.3983621,15.8684974 79.0479876,15.7375158 78.7051751,15.7375158 L78.7051751,15.7375158 Z M91.2556419,15.7375158 C90.4448231,15.7375158 89.7768429,16.0698817 89.2601034,16.735432 C88.7450444,17.4001637 88.4719707,18.3988986 88.4719707,19.728362 C88.4719707,21.0471832 88.7475651,22.0467366 89.2601034,22.721292 C89.7718015,23.3950287 90.4120543,23.7192082 91.2027077,23.7192082 C91.8555638,23.7192082 92.4168353,23.4826226 92.8831611,23.0029024 C93.349487,22.5231823 93.6334836,21.8175188 93.7494349,20.9055593 L92.7512455,20.7516559 C92.6773056,21.4041081 92.5025384,21.873186 92.2261038,22.1842673 C91.9496692,22.4937114 91.6169394,22.6443403 91.2279145,22.6443403 C90.7321807,22.6443403 90.3103869,22.4192156 89.9936214,21.9534122 C89.6768559,21.4876088 89.5214139,20.7426509 89.5214139,19.7021657 C89.5214139,18.6936072 89.6886191,17.9658406 90.0205086,17.5016745 C90.3523982,17.0375084 90.7750322,16.7853688 91.2808487,16.7853688 C91.6186199,16.7853688 91.9068177,16.9130758 92.1471225,17.1693086 C92.3891078,17.4247228 92.5495911,17.8307658 92.6462172,18.3465059 L93.6444066,18.1418471 C93.5242542,17.3363102 93.2587425,16.7280643 92.8302269,16.3252958 C92.4017112,15.9217087 91.8816109,15.7375158 91.2556419,15.7375158 L91.2556419,15.7375158 Z M97.1111821,15.7375158 C96.2902806,15.7375158 95.5979338,16.0666071 95.0627093,16.7608097 C94.5274849,17.4550123 94.2745766,18.4602962 94.2745766,19.779936 C94.2745766,21.0512763 94.5325262,22.0475553 95.0627093,22.7221106 C95.5937326,23.3958473 96.2801979,23.7200268 97.1372291,23.7200268 C97.8169726,23.7200268 98.3824452,23.5210985 98.8437297,23.1060505 C99.3041739,22.6910025 99.6385842,22.0803007 99.8150318,21.2641215 L98.7647483,21.0848404 C98.4631069,22.1302374 97.9312434,22.6435216 97.1632762,22.6451589 C96.6725838,22.6451589 96.2457486,22.4421374 95.9029361,22.0058049 C95.5601235,21.5686537 95.3668714,20.9202947 95.3248601,20.0615465 L99.8410788,20.0615465 L99.8410788,19.7029843 C99.8410788,18.4119967 99.5772476,17.4427328 99.0529461,16.7608097 C98.5320055,16.0788867 97.8942734,15.7375158 97.1111821,15.7375158 Z M103.176779,15.7375158 C102.462586,15.7375158 101.898794,15.9429932 101.496325,16.3514921 C101.093017,16.7591724 100.892202,17.2855548 100.892202,17.938007 C100.892202,18.3170351 100.953539,18.6371214 101.102259,18.9359232 C101.250139,19.2339064 101.463557,19.4745851 101.732429,19.6522289 C101.999621,19.8298727 102.538207,20.0631837 103.333901,20.3169606 C103.88341,20.4896926 104.240506,20.637047 104.384185,20.7516559 C104.592561,20.9194761 104.69927,21.1396889 104.69927,21.4425839 C104.69927,21.7929597 104.574916,22.0852125 104.331251,22.3119744 C104.089265,22.5403736 103.750654,22.6443403 103.307014,22.6443403 C102.862534,22.6443403 102.497876,22.5231823 102.230684,22.2604004 C101.963492,21.9976185 101.791245,21.5981246 101.731589,21.0578254 L100.707353,21.2624842 C100.938415,22.9038476 101.776961,23.7192082 103.228033,23.7183901 C104.001882,23.7183901 104.618608,23.5047258 105.066449,23.0536578 C105.51429,22.6025899 105.748713,21.9935253 105.748713,21.2624842 C105.748713,20.8679021 105.677294,20.5257126 105.538656,20.2391903 C105.400019,19.952668 105.184081,19.7406415 104.934533,19.5744586 C104.685826,19.4090943 104.154803,19.1880628 103.306174,18.9097269 C102.689447,18.6993376 102.302103,18.5454342 102.176909,18.4496539 C101.967693,18.2875642 101.861824,18.0665327 101.861824,17.7849222 C101.861824,17.4967627 101.985337,17.2528094 102.202956,17.0686165 C102.420575,16.8844236 102.757506,16.787006 103.201146,16.787006 C103.984237,16.787006 104.421995,17.2061472 104.51358,18.0403364 L105.511769,17.886433 C105.44203,17.3584133 105.325239,16.9417281 105.14375,16.6584803 C104.950998,16.3621476 104.678357,16.1231329 104.355617,15.9675523 C104.018686,15.7997321 103.62546,15.7375158 103.176779,15.7375158 L103.176779,15.7375158 Z M79.7554585,15.8906006 L82.040035,23.5399271 L83.0113371,23.5399271 L85.2959137,15.8906006 L84.2456302,15.8906006 L82.9063088,20.5723748 C82.744145,21.1380516 82.6013065,21.6267768 82.5122425,22.0303639 C82.4004923,21.5219915 82.2937835,20.9882414 82.1442231,20.4700454 L80.831789,15.8906006 L79.7554585,15.8906006 Z M86.1882345,15.8906006 L86.1882345,23.5399271 L87.2124709,23.5399271 L87.2124709,15.8906006 L86.1882345,15.8906006 Z M52.5270707,15.99293 C51.7145714,15.99293 51.060875,16.3482176 50.5315322,17.0416015 C50.0013491,17.7358041 49.7173525,18.741088 49.7173525,20.0607278 C49.7173525,21.3320682 49.9795032,22.3029694 50.5054851,22.9767061 C51.0314671,23.6504428 51.731376,24 52.580005,24 C53.2538668,24 53.8042153,23.775694 54.2604585,23.360646 C54.7158614,22.945598 55.0309464,22.3348962 55.2057135,21.518717 L54.1814771,21.3648136 C53.8831966,22.4102106 53.3412504,22.9234948 52.580005,22.9251321 C52.0935137,22.9251321 51.6851635,22.7221106 51.3457119,22.2857781 C51.0062603,21.8486269 50.808807,21.2002679 50.7676359,20.3415197 L55.2309203,20.3415197 L55.2569674,19.9829575 C55.2569674,18.6919699 54.9880948,17.6973283 54.4688347,17.0154052 C53.9495746,16.3334822 53.3009195,15.99293 52.5270707,15.99293 L52.5270707,15.99293 Z M41,16.1722111 L42.8384161,23.8215375 L43.9147466,23.8215375 L45.1229926,17.9371884 L45.3330493,19.2420927 L46.3043514,23.8215375 L47.3546349,23.8215375 L49.219098,16.1722111 L48.2477959,16.1722111 L47.2235595,20.5977525 L46.8824274,22.0811193 L46.5673424,20.5977525 L45.6750216,16.1722111 L44.6247382,16.1722111 L43.6794831,20.6493265 L43.3643981,22.2358413 L42.9963787,20.5985711 L42.0511237,16.1730297 L41,16.1730297 L41,16.1722111 Z M106.353676,16.2491628 L106.353676,16.6077249 L107.351866,16.6077249 L107.351866,19.1659597 L107.745932,19.1659597 L107.745932,16.6077249 L108.744121,16.6077249 L108.744121,16.2491628 L106.353676,16.2491628 Z M109.137347,16.2491628 L109.137347,19.165141 L109.505367,19.165141 L109.505367,16.683858 L110.371641,19.165141 L110.73966,19.165141 L111.605934,16.7346134 L111.605934,19.165141 L112,19.165141 L112,16.2491628 L111.448811,16.2491628 L110.73966,18.2957505 C110.668241,18.5004093 110.616987,18.6485823 110.581697,18.7558235 L110.423735,18.3211282 L109.714583,16.2491628 L109.137347,16.2491628 L109.137347,16.2491628 Z M72.4555686,16.7861874 C72.9655862,16.7861874 73.3856996,17.0268661 73.7159087,17.5024931 C73.9427699,17.8283099 74.0898096,18.3244028 74.1360221,18.9858599 L70.7490681,18.9858599 C70.7809967,18.3145791 70.9759293,17.7963831 71.3002568,17.3993451 C71.6245843,17.0023071 71.997645,16.7861874 72.4555686,16.7861874 L72.4555686,16.7861874 Z M97.0851351,16.7861874 C97.5934723,16.7861874 98.0152661,17.0268661 98.3454752,17.5024931 C98.5723364,17.8283099 98.7193761,18.3244028 98.7655886,18.9858599 L95.3786346,18.9858599 C95.4105632,18.3145791 95.6054958,17.7963831 95.9298233,17.3993451 C96.2533106,17.0039443 96.6263713,16.7861874 97.0851351,16.7861874 L97.0851351,16.7861874 Z M52.5270707,17.0677979 C53.0312067,17.0677979 53.436196,17.3084766 53.7613638,17.7841036 C53.9857043,18.1099204 54.1352647,18.6060132 54.1814771,19.2674704 L50.8466172,19.2674704 C50.8785458,18.5961896 51.0491118,18.0526159 51.3717589,17.6555779 C51.6918853,17.2593585 52.072508,17.0677979 52.5270707,17.0677979 Z M59.0388279,17.0677979 C59.4942308,17.0677979 59.8815754,17.314207 60.1941397,17.7841036 C60.5067041,18.2548188 60.6403001,18.9801295 60.6403001,19.9845948 C60.6403001,20.9628637 60.4924202,21.6922676 60.1680927,22.185086 C59.8437652,22.6779043 59.4572609,22.9267694 59.0388279,22.9267694 C58.731305,22.9267694 58.4515094,22.8260772 58.1986012,22.6197812 C57.9448527,22.4134852 57.7591626,22.1179579 57.6205252,21.7241944 C57.4818878,21.3304309 57.4104685,20.7246409 57.4104685,19.9330208 C57.4104685,19.0005954 57.5810345,18.3022996 57.9095632,17.8094813 C58.2380919,17.3166629 58.620395,17.0677979 59.0388279,17.0677979 Z" id="Shape"></path>
            <path d="M9.51773717,16.2735043 L6.52916257,17.5498575 L9.29693183,18.7266553 L12.5063118,17.5498575 L9.51773717,16.2735043 L9.51773717,16.2735043 Z M5.02460525,17.8689459 L4.92447259,23.6125356 L9.29693183,25.5270655 L9.29693183,19.563943 L5.02460525,17.8689459 Z M14.0108691,17.8689459 L10.0594805,19.3648319 L10.0594805,24.9884444 L14.0108691,23.3930028 L14.0108691,17.8689459 Z M18.7248064,0 L15.7156917,1.27635328 L18.504001,2.453151 L21.713381,1.27635328 L18.7248064,0 L18.7248064,0 Z M14.5526124,1.69563533 L14.5526124,7.43922507 L18.2831957,8.51646724 L18.4038684,3.29107692 L14.5526124,1.69563533 Z M22.8970003,2.01472365 L19.3666824,3.51060969 L19.3666824,9.15464387 L22.8970003,7.55920228 L22.8970003,2.01472365 Z M4.59326458,8.08378348 L1.60468997,9.36013675 L4.37245924,10.5369345 L7.58183919,9.36013675 L4.59326458,8.08378348 L4.59326458,8.08378348 Z M0.100132654,9.67922507 L0,15.4228148 L4.37245924,17.3373447 L4.37245924,11.3742222 L0.100132654,9.67922507 Z M9.08639651,9.67922507 L5.13500792,11.1751111 L5.13500792,16.7987236 L9.08639651,15.2032821 L9.08639651,9.67922507 L9.08639651,9.67922507 Z M14.2214044,7.87190883 L11.2328298,9.14826211 L14.0005991,10.3250598 L17.209979,9.14826211 L14.2214044,7.87190883 L14.2214044,7.87190883 Z M9.7282725,9.46735043 L9.62813984,15.2109402 L14.0005991,17.1254701 L14.0005991,11.1629858 L9.7282725,9.46735043 L9.7282725,9.46735043 Z M18.7145364,9.46735043 L14.7631478,10.9632365 L14.7631478,16.586849 L18.7145364,14.9914074 L18.7145364,9.46735043 Z M28.1289315,0 L25.1403569,1.27635328 L27.9081262,2.453151 L31.1175061,1.27635328 L28.1289315,0 L28.1289315,0 Z M23.6357996,1.5954416 L23.5356669,7.33903134 L27.9081262,9.25356125 L27.9081262,3.29107692 L23.6357996,1.5954416 Z M32.6220634,1.5954416 L28.6706748,3.09132764 L28.6706748,8.71494017 L32.6220634,7.11949858 L32.6220634,1.5954416 Z" id="Shape"></path>
        </g>
    </g>
</svg>
