<?xml version="1.0" encoding="UTF-8"?>
<svg width="134px" height="36px" viewBox="0 0 134 36" version="1.1" xmlns="http://www.w3.org/2000/svg" xmlns:xlink="http://www.w3.org/1999/xlink">
    <title>NodeJS (dark)</title>
    <g id="NodeJS-(dark)" stroke="none" stroke-width="1" fill="none" fill-rule="evenodd">
        <rect fill="" x="0" y="0" width="134" height="36"></rect>
        <g id="Group" transform="translate(8, 3)">
            <path d="M56.0732241,5.90626881e-05 C55.9963145,0.00104672461 55.9185221,0.0194834584 55.8498844,0.0599205186 C55.7128401,0.140732385 55.6265429,0.289144979 55.6265429,0.44873884 L55.6265429,11.888935 C55.6265429,12.0013438 55.5744284,12.1017903 55.4776504,12.1581645 C55.3806283,12.2146802 55.2622334,12.2146802 55.1649746,12.1581645 L53.3038084,11.081437 C53.0265097,10.9208376 52.6878085,10.9209338 52.4104479,11.081437 L44.9806722,15.3883433 C44.7028965,15.5492784 44.533991,15.8588959 44.533991,16.1809096 L44.533991,24.7947222 C44.533991,25.1164944 44.703135,25.4111351 44.9806722,25.572357 L52.4104479,29.8792633 C52.6882236,30.0402456 53.0260327,30.0402456 53.3038084,29.8792633 L60.7335841,25.572357 C61.0111213,25.4111351 61.1802653,25.1164944 61.1802653,24.7947222 L61.1802653,3.3200097 C61.1802653,2.99334013 61.0027836,2.68677496 60.718695,2.5274188 L56.2965637,0.044966258 C56.2271203,0.00606103326 56.1501337,-0.000734128431 56.0732241,5.90626881e-05 L56.0732241,5.90626881e-05 Z M8.27846901,10.7523904 C8.13678347,10.7581254 8.00367036,10.7830158 7.8764569,10.8570948 L0.446679287,15.164001 C0.16983332,15.3247438 0,15.6175187 0,15.9416377 L0.0148571285,27.5014679 C0.0148571285,27.6622597 0.0974466099,27.8115646 0.23819865,27.8903334 C0.376155822,27.9732657 0.547386576,27.9732657 0.684877937,27.8903334 L5.0921202,25.3480148 C5.37129711,25.1814333 5.55368855,24.8916749 5.55368855,24.57038 L5.55368855,19.1718165 C5.55368855,18.8498028 5.72234607,18.5542547 6.00036971,18.3941798 L7.87642497,17.3025245 C8.01644637,17.2212183 8.16677008,17.1828866 8.32310426,17.1828866 C8.47623035,17.1828866 8.63363703,17.2211712 8.76978543,17.3025245 L10.6458407,18.3941798 C10.9238549,18.5542547 11.09252,18.8498028 11.09252,19.1718165 L11.09252,24.57038 C11.09252,24.8916749 11.2767333,25.1833009 11.5540902,25.3480148 L15.9613325,27.8903334 C16.0997442,27.9732657 16.2707345,27.9732657 16.4080117,27.8903334 C16.5448175,27.8115646 16.6313514,27.6622597 16.6313514,27.5014679 L16.6462085,15.9416377 C16.6462085,15.6175187 16.4782572,15.3247438 16.1995292,15.164001 L8.76976852,10.8570948 C8.64410276,10.7830158 8.51039987,10.7582272 8.36775641,10.7523904 L8.27842018,10.7523904 L8.27846901,10.7523904 Z M75.0422329,10.8569438 C74.8870125,10.8569438 74.7349157,10.8963358 74.5955517,10.9767307 L67.165776,15.283637 C66.8882388,15.4446193 66.7190967,15.73926 66.7190967,16.0612737 L66.7190967,24.6750844 C66.7190967,24.9989638 66.9007462,25.292648 67.180665,25.452721 L74.5508845,29.6698998 C74.8230611,29.8260018 75.1553912,29.8376773 75.4293541,29.6847277 L79.8961544,27.1872964 C80.0379001,27.1083352 80.1337877,26.9608488 80.1343831,26.7984781 C80.1353223,26.6360601 80.0510029,26.4904867 79.9110435,26.4096597 L72.4365987,22.1027534 C72.2966393,22.0225981 72.19837,21.8601801 72.19837,21.6989582 L72.19837,19.0071423 C72.19837,18.8462071 72.2978301,18.6987189 72.4365987,18.6183711 L74.7593351,17.272416 C74.8975083,17.1921153 75.0672458,17.1921153 75.2060144,17.272416 L77.5287508,18.6183711 C77.6675194,18.6987189 77.7520905,18.8462071 77.7520905,19.0071423 L77.7520905,21.1307341 C77.7520905,21.2919069 77.8366615,21.4391555 77.9754301,21.5195033 C78.1147941,21.6000907 78.2833427,21.6004246 78.4221113,21.5195033 L82.8740207,18.917462 C83.1503671,18.7562401 83.3207,18.4608335 83.3207,18.1398272 L83.3207,16.0611227 C83.3207,15.7400655 83.1509625,15.444708 82.8740207,15.2834861 L75.4889122,10.9765798 C75.3498431,10.8956114 75.1974533,10.8571363 75.0422329,10.8569438 L75.0422329,10.8569438 Z M52.8273491,17.2875457 C52.8660847,17.2875457 52.9116816,17.2971102 52.9464634,17.3172146 L55.4925395,18.7977373 C55.5616261,18.8379348 55.6116539,18.9119666 55.6116539,18.992122 L55.6116539,21.9531203 C55.6116539,22.0335152 55.5621032,22.1075942 55.4925395,22.147554 L52.9464634,23.6280277 C52.8771383,23.6677479 52.7924489,23.6677479 52.7231238,23.6280277 L50.1770477,22.147554 C50.1077226,22.1073565 50.0579334,22.0335152 50.0579334,21.9531203 L50.0579334,18.992122 C50.0579334,18.9119666 50.1079611,18.8381272 50.1770477,18.7977373 L52.7231238,17.3174542 C52.7579056,17.2973555 52.7886079,17.2877853 52.8273491,17.2877853 L52.8273491,17.2875457 Z" id="path22" fill="#D3D3D3"></path>
            <path d="M97.3017839,10.6477313 C97.0441958,10.6477313 96.7937602,10.7012324 96.5722068,10.8271862 L89.5593304,14.8948187 C89.1055043,15.157253 88.8297533,15.6533131 88.8297533,16.1809096 L88.8297533,24.3012448 C88.8297533,24.8285546 89.1055043,25.3240393 89.5593304,25.5872886 L91.3907185,26.6490845 C92.2805046,27.0895362 92.6086668,27.0827411 93.0136559,27.0827411 C94.3310644,27.0827411 95.0832727,26.2798857 95.0832727,24.8844478 L95.0832727,16.8688188 C95.0832727,16.7554988 94.9855989,16.6743851 94.8748221,16.6743851 L93.9963526,16.6743851 C93.8837878,16.6743851 93.7879002,16.7554988 93.7879002,16.8688188 L93.7879002,24.8844478 C93.7879002,25.5029678 93.1464685,26.1249817 92.1054064,25.6022655 L90.1995731,24.4806997 C90.1322727,24.4438527 90.0804568,24.3788176 90.0804568,24.3012448 L90.0804568,16.1809096 C90.0804568,16.1038161 90.1316773,16.0255264 90.1995731,15.986525 L97.1975586,11.9338223 C97.2630708,11.8960169 97.3410905,11.8960169 97.4060092,11.9338223 L104.403995,15.986525 C104.4707,16.0267225 104.523109,16.1014711 104.523109,16.1809096 L104.523109,24.3012448 C104.523109,24.3788176 104.484373,24.4582561 104.418884,24.4956313 L97.4060092,28.5483341 C97.3458556,28.5842247 97.2630708,28.5842247 97.1975586,28.5483341 L95.3959486,27.4716065 C95.3423465,27.4400228 95.269092,27.4424149 95.2172761,27.4716065 C94.7199737,27.7547622 94.6264677,27.7876853 94.1601342,27.9501523 C94.0451896,27.9903498 93.870685,28.0528966 94.2196923,28.2492432 L96.5722068,29.6399913 C96.7961419,29.7701539 97.0456872,29.834376 97.3017839,29.834376 C97.561453,29.834376 97.8074259,29.7701539 98.0313609,29.6399913 L105.044235,25.5872886 C105.498063,25.3221735 105.773813,24.8285546 105.773813,24.3012448 L105.773813,16.1809096 C105.773813,15.6533131 105.498063,15.1583548 105.044235,14.8948187 L98.0313609,10.8271862 C97.8115937,10.7012324 97.5593719,10.6477313 97.3017839,10.6477313 L97.3017839,10.6477313 Z M30.5975762,10.8122075 C30.4427559,10.8122075 30.2895472,10.8514485 30.1508969,10.9318434 L22.7211212,15.22382 C22.4433455,15.3846099 22.27444,15.6946594 22.27444,16.0163864 L22.27444,24.630197 C22.27444,24.952307 22.4435258,25.246708 22.7211212,25.4078337 L30.1508969,29.71474 C30.4286727,29.8758657 30.7664817,29.8758657 31.0442574,29.71474 L38.4740331,25.4078337 C38.7513318,25.246708 38.9207143,24.952307 38.9207143,24.630197 L38.9207143,16.0163864 C38.9207143,15.6941821 38.7518088,15.3846099 38.4740331,15.22382 L31.0442574,10.9318434 C30.9056071,10.8514485 30.7523965,10.8122075 30.5975762,10.8122075 Z M107.709426,10.857191 L107.709426,11.0665544 L108.29011,11.0665544 L108.29011,12.606847 L108.528339,12.606847 L108.528339,11.0665544 L109.123913,11.0665544 L109.123913,10.857191 L107.709426,10.857191 L107.709426,10.857191 Z M109.332363,10.857191 L109.332363,12.606847 L109.555703,12.606847 L109.555703,11.5750087 C109.555703,11.5328964 109.5576,11.467767 109.555703,11.3806241 C109.552848,11.2918531 109.555703,11.2144727 109.555703,11.1712116 L109.555703,11.1262299 L110.047051,12.6067036 L110.28528,12.6067036 L110.791517,11.1262299 C110.791517,11.2204076 110.778989,11.3113311 110.77666,11.3954104 C110.775721,11.477241 110.77666,11.538688 110.77666,11.5748653 L110.77666,12.6067036 L111,12.6067036 L111,10.8570476 L110.672435,10.8570476 L110.166198,12.3375703 L109.674849,10.8570476 L109.332395,10.8570476 L109.332363,10.857191 Z M99.1778391,16.4501863 C97.1808814,16.4501863 95.9915222,17.3037677 95.9915222,18.7232754 C95.9915222,20.263187 97.1719483,20.6862678 99.0885029,20.8767286 C101.381461,21.1021725 101.560132,21.440312 101.560132,21.8936372 C101.560132,22.6799347 100.935971,23.0152029 99.4607369,23.0152029 C97.6073129,23.0152029 97.1999402,22.550489 97.0635533,21.6244567 C97.0474941,21.5251572 96.97124,21.4450018 96.8699936,21.4450018 L95.9617441,21.4450018 C95.8497766,21.4450018 95.7532935,21.5417149 95.7532935,21.6543652 C95.7532935,22.839721 96.3953206,24.241524 99.4607369,24.241524 C101.679843,24.241524 102.95973,23.3666479 102.95973,21.8338201 C102.95973,20.3142469 101.925814,19.9063825 99.7734128,19.620548 C97.598378,19.3315065 97.3911201,19.1900495 97.3911201,18.6784372 C97.3911201,18.2561203 97.5668136,17.6913899 99.1778391,17.6913899 C100.616744,17.6913899 101.148591,18.0030656 101.36657,18.977528 C101.385629,19.0691212 101.466032,19.1420023 101.560132,19.1420023 L102.468381,19.1420023 C102.524365,19.1420023 102.578563,19.1075473 102.617276,19.0672064 C102.655391,19.0241377 102.682192,18.9756132 102.676832,18.9177091 C102.536277,17.2394985 101.421959,16.4501863 99.1778391,16.4501863 L99.1778391,16.4501863 Z M75.0273438,18.4989709 C74.9976596,18.4989709 74.9648087,18.4989709 74.9380076,18.5138101 L73.5086316,19.3512638 C73.4550295,19.3818911 73.4192954,19.4388841 73.4192954,19.5008083 L73.4192954,21.1458072 C73.4192954,21.2077314 73.4550295,21.2644867 73.5086316,21.2953535 L74.9380076,22.1178284 C74.9916078,22.148933 75.0487843,22.148933 75.1017891,22.1178284 L76.5311651,21.2953535 C76.5841718,21.2647263 76.6205013,21.2077314 76.6205013,21.1458072 L76.6205013,19.5008083 C76.6205013,19.4388841 76.5841962,19.3820816 76.5311651,19.3512638 L75.1017891,18.5138101 C75.075298,18.4980202 75.0570506,18.4989709 75.0273438,18.4989709 Z" id="path28" fill="#FFFFFF"></path>
        </g>
    </g>
</svg>
