<?xml version="1.0" encoding="UTF-8"?>
<svg width="124px" height="36px" viewBox="0 0 124 36" version="1.1" xmlns="http://www.w3.org/2000/svg" xmlns:xlink="http://www.w3.org/1999/xlink">
    <title>React (dark)</title>
    <g id="React-(dark)" stroke="none" stroke-width="1" fill="none" fill-rule="evenodd">
        <rect fill="" x="0" y="0" width="124" height="36"></rect>
        <g id="Font" transform="translate(43.016, 8.504)" fill="#FFFFFF" fill-rule="nonzero">
            <g id="React">
                <path d="M0,17.496 L3.168,17.496 L3.168,10.728 L7.848,10.728 C9,10.728 9.768,10.944 10.152,11.376 C10.536,11.808 10.728,12.432 10.728,13.248 L10.728,15.504 C10.728,15.936 10.748,16.32 10.788,16.656 C10.828,16.992 10.904,17.272 11.016,17.496 L14.208,17.496 C14.064,17.16 13.98,16.824 13.956,16.488 C13.932,16.152 13.92,15.832 13.92,15.528 L13.92,12.696 C13.92,11.704 13.708,10.928 13.284,10.368 C12.86,9.808 12.192,9.448 11.28,9.288 L11.28,9.12 C12.24,8.88 12.988,8.384 13.524,7.632 C14.06,6.88 14.328,5.976 14.328,4.92 C14.328,3.352 13.832,2.14 12.84,1.284 C11.848,0.428 10.368,0 8.4,0 L0,0 L0,17.496 Z M3.168,8.184 L3.168,2.64 L7.944,2.64 C8.888,2.64 9.648,2.848 10.224,3.264 C10.8,3.68 11.088,4.376 11.088,5.352 C11.088,6.184 10.848,6.864 10.368,7.392 C9.888,7.92 9.08,8.184 7.944,8.184 L3.168,8.184 Z" id="Shape"></path>
                <path d="M22.488,17.712 C23.528,17.712 24.464,17.536 25.296,17.184 C26.128,16.832 26.808,16.34 27.336,15.708 C27.864,15.076 28.184,14.344 28.296,13.512 L25.44,13.512 C25.296,14.088 24.96,14.548 24.432,14.892 C23.904,15.236 23.256,15.408 22.488,15.408 C21.496,15.408 20.696,15.092 20.088,14.46 C19.48,13.828 19.176,12.928 19.176,11.76 L28.344,11.76 C28.488,10.368 28.356,9.124 27.948,8.028 C27.54,6.932 26.872,6.068 25.944,5.436 C25.016,4.804 23.824,4.488 22.368,4.488 C21.12,4.488 20.036,4.764 19.116,5.316 C18.196,5.868 17.484,6.644 16.98,7.644 C16.476,8.644 16.224,9.824 16.224,11.184 C16.224,12.496 16.476,13.64 16.98,14.616 C17.484,15.592 18.204,16.352 19.14,16.896 C20.076,17.44 21.192,17.712 22.488,17.712 Z M22.368,6.792 C23.2,6.792 23.904,7.032 24.48,7.512 C25.056,7.992 25.368,8.736 25.416,9.744 L19.2,9.744 C19.296,8.832 19.624,8.112 20.184,7.584 C20.744,7.056 21.472,6.792 22.368,6.792 Z" id="Shape"></path>
                <path d="M35.16,17.712 C36.2,17.712 37.088,17.476 37.824,17.004 C38.56,16.532 39.08,15.904 39.384,15.12 L39.552,15.12 L39.552,17.496 L42.552,17.496 L42.552,4.728 L39.672,4.728 L39.552,7.08 L39.384,7.08 C39.08,6.296 38.56,5.668 37.824,5.196 C37.088,4.724 36.2,4.488 35.16,4.488 C33.624,4.488 32.384,5.048 31.44,6.168 C30.496,7.288 30.024,8.936 30.024,11.112 C30.024,13.272 30.496,14.912 31.44,16.032 C32.384,17.152 33.624,17.712 35.16,17.712 Z M36.288,15.264 C35.328,15.264 34.552,14.92 33.96,14.232 C33.368,13.544 33.072,12.504 33.072,11.112 C33.072,9.704 33.368,8.656 33.96,7.968 C34.552,7.28 35.328,6.936 36.288,6.936 C37.008,6.936 37.604,7.1 38.076,7.428 C38.548,7.756 38.904,8.188 39.144,8.724 C39.384,9.26 39.504,9.832 39.504,10.44 L39.504,11.76 C39.504,12.352 39.384,12.916 39.144,13.452 C38.904,13.988 38.548,14.424 38.076,14.76 C37.604,15.096 37.008,15.264 36.288,15.264 Z" id="Shape"></path>
                <path d="M51.24,17.712 C52.328,17.712 53.3,17.512 54.156,17.112 C55.012,16.712 55.696,16.148 56.208,15.42 C56.72,14.692 57.008,13.84 57.072,12.864 L54.144,12.864 C54.064,13.568 53.768,14.14 53.256,14.58 C52.744,15.02 52.072,15.24 51.24,15.24 C50.264,15.24 49.48,14.892 48.888,14.196 C48.296,13.5 48,12.472 48,11.112 C48,9.864 48.28,8.86 48.84,8.1 C49.4,7.34 50.208,6.96 51.264,6.96 C51.984,6.96 52.604,7.152 53.124,7.536 C53.644,7.92 53.968,8.488 54.096,9.24 L57.024,9.24 C56.976,8.296 56.7,7.468 56.196,6.756 C55.692,6.044 55.024,5.488 54.192,5.088 C53.36,4.688 52.408,4.488 51.336,4.488 C50.056,4.488 48.936,4.764 47.976,5.316 C47.016,5.868 46.276,6.64 45.756,7.632 C45.236,8.624 44.976,9.784 44.976,11.112 C44.976,12.44 45.236,13.6 45.756,14.592 C46.276,15.584 47.004,16.352 47.94,16.896 C48.876,17.44 49.976,17.712 51.24,17.712 Z" id="Path"></path>
                <path d="M63.36,17.496 L66.024,17.496 L66.024,15.048 L64.392,15.048 C64.024,15.048 63.752,14.98 63.576,14.844 C63.4,14.708 63.312,14.44 63.312,14.04 L63.312,7.152 L66.024,7.152 L66.024,4.728 L63.312,4.728 L63.312,0.816 L60.336,1.128 L60.336,4.728 L57.984,4.728 L57.984,7.152 L60.336,7.152 L60.336,14.592 C60.336,15.504 60.544,16.216 60.96,16.728 C61.376,17.24 62.176,17.496 63.36,17.496 Z" id="Path"></path>
            </g>
        </g>
        <g id="Icon" transform="translate(8, 3)">
            <ellipse id="Oval" fill="#FFFFFF" fill-rule="nonzero" cx="13.5" cy="15" rx="2.7" ry="2.74970683"></ellipse>
            <g id="Group" stroke="#FFFFFF" stroke-width="1.37485341">
                <ellipse id="Oval" cx="13.5" cy="15" rx="13.5" ry="6.18684036"></ellipse>
                <ellipse id="Oval" transform="translate(13.5, 15) rotate(60) translate(-13.5, -15)" cx="13.5" cy="15" rx="13.6864881" ry="6.1039284"></ellipse>
                <ellipse id="Oval" transform="translate(13.5, 15) rotate(120) translate(-13.5, -15)" cx="13.5" cy="15" rx="13.6864881" ry="6.1039284"></ellipse>
            </g>
        </g>
    </g>
</svg>
